<svg width="204" height="152" viewBox="0 0 204 152" fill="none" xmlns="http://www.w3.org/2000/svg">
<g id="checklist/rafiki">
<g id="background-complete">
<path id="Vector" d="M203.997 133.575H0.00341797V133.677H203.997V133.575Z" fill="#EBEBEB"/>
<path id="Vector_2" d="M183.557 137.459H146.471V137.561H183.557V137.459Z" fill="#EBEBEB"/>
<path id="Vector_3" d="M135.137 136.353H124.982V136.455H135.137V136.353Z" fill="#EBEBEB"/>
<path id="Vector_4" d="M158.347 141.249H142.603V141.351H158.347V141.249Z" fill="#EBEBEB"/>
<path id="Vector_5" d="M30.6436 140.564H21.4067V140.666H30.6436V140.564Z" fill="#EBEBEB"/>
<path id="Vector_6" d="M45.2457 140.564H34.2749V140.666H45.2457V140.564Z" fill="#EBEBEB"/>
<path id="Vector_7" d="M91.8621 138.842H72.752V138.944H91.8621V138.842Z" fill="#EBEBEB"/>
<path id="Vector_8" d="M96.6965 115.379H17.9183C17.3012 115.378 16.7097 115.132 16.2737 114.695C15.8377 114.258 15.5928 113.666 15.5928 113.049V2.30921C15.5981 1.6956 15.8454 1.1089 16.2808 0.676531C16.7162 0.244163 17.3047 0.00105113 17.9183 0H96.6965C97.3143 0 97.9069 0.24544 98.3438 0.682326C98.7806 1.11921 99.0261 1.71175 99.0261 2.3296V113.049C99.0261 113.667 98.7806 114.259 98.3438 114.696C97.9069 115.133 97.3143 115.379 96.6965 115.379ZM17.9183 0.0815977C17.3282 0.0826784 16.7627 0.317848 16.3458 0.735489C15.9289 1.15313 15.6948 1.71911 15.6948 2.30921V113.049C15.6948 113.639 15.9289 114.205 16.3458 114.623C16.7627 115.04 17.3282 115.276 17.9183 115.277H96.6965C97.2869 115.276 97.8529 115.041 98.2704 114.623C98.688 114.206 98.923 113.64 98.9241 113.049V2.30921C98.923 1.71874 98.688 1.15276 98.2704 0.73524C97.8529 0.317716 97.2869 0.0826762 96.6965 0.0815977H17.9183Z" fill="#EBEBEB"/>
<path id="Vector_9" d="M184.948 115.379H106.166C105.549 115.378 104.957 115.132 104.52 114.695C104.083 114.259 103.838 113.667 103.836 113.049V2.30921C103.843 1.69523 104.091 1.10853 104.527 0.676276C104.963 0.24402 105.552 0.00103967 106.166 0H184.948C185.561 0.00212337 186.149 0.24571 186.583 0.677963C187.018 1.11022 187.264 1.69631 187.27 2.30921V113.049C187.27 113.666 187.025 114.257 186.59 114.693C186.155 115.13 185.565 115.377 184.948 115.379ZM106.166 0.0815977C105.576 0.0826762 105.01 0.317716 104.592 0.73524C104.175 1.15276 103.94 1.71874 103.938 2.30921V113.049C103.94 113.64 104.175 114.206 104.592 114.623C105.01 115.041 105.576 115.276 106.166 115.277H184.948C185.539 115.276 186.105 115.041 186.522 114.623C186.94 114.206 187.175 113.64 187.176 113.049V2.30921C187.175 1.71874 186.94 1.15276 186.522 0.73524C186.105 0.317716 185.539 0.0826762 184.948 0.0815977H106.166Z" fill="#EBEBEB"/>
<path id="Vector_10" d="M21.4027 133.571H70.1816L70.1816 25.6956H21.4027L21.4027 133.571Z" fill="#F0F0F0"/>
<path id="Vector_11" d="M21.4064 133.571H67.8721L67.8721 25.6956H21.4064L21.4064 133.571Z" fill="#F5F5F5"/>
<path id="Vector_12" d="M65.4243 131.127V28.1469L23.8545 28.1469L23.8545 131.127H65.4243Z" fill="#F0F0F0"/>
<path id="Vector_13" d="M37.2854 76.7016H28.8115C28.5229 76.7005 28.2465 76.5854 28.0424 76.3814C27.8384 76.1773 27.7232 75.9008 27.7222 75.6123C27.7232 75.3237 27.8384 75.0472 28.0424 74.8432C28.2465 74.6391 28.5229 74.524 28.8115 74.5229H37.2854C37.574 74.524 37.8504 74.6391 38.0545 74.8432C38.2585 75.0472 38.3736 75.3237 38.3747 75.6123C38.3736 75.9008 38.2585 76.1773 38.0545 76.3814C37.8504 76.5854 37.574 76.7005 37.2854 76.7016Z" fill="white"/>
<path id="Vector_14" d="M24.4912 131.127L24.4912 28.1469H23.8548L23.8548 131.127H24.4912Z" fill="#F0F0F0"/>
<path id="Vector_15" d="M93.0367 131.526H100.299V100.03H93.0367V131.526Z" fill="#F0F0F0"/>
<path id="Vector_16" d="M63.0907 133.526H98.9038V131.531H63.0907V133.526Z" fill="#F0F0F0"/>
<path id="Vector_17" d="M93.0369 100.035H61.6953V131.531H93.0369V100.035Z" fill="#F5F5F5"/>
<path id="Vector_18" d="M90.1771 103.91H64.5474V114.24H90.1771V103.91Z" fill="#F0F0F0"/>
<path id="Vector_19" d="M90.1771 117.321H64.5474V127.651H90.1771V117.321Z" fill="#F0F0F0"/>
<path id="Vector_20" d="M74.4861 104.78H80.2428C80.4296 104.779 80.6086 104.704 80.7407 104.572C80.8728 104.44 80.9475 104.261 80.9486 104.074C80.9486 103.886 80.8744 103.706 80.7421 103.573C80.6099 103.44 80.4304 103.365 80.2428 103.364H74.4861C74.2985 103.365 74.119 103.44 73.9868 103.573C73.8545 103.706 73.7803 103.886 73.7803 104.074C73.7813 104.261 73.856 104.44 73.9882 104.572C74.1203 104.704 74.2992 104.779 74.4861 104.78Z" fill="#F5F5F5"/>
<path id="Vector_21" d="M74.4861 118.193H80.2428C80.4276 118.192 80.6047 118.119 80.7365 117.99C80.8683 117.86 80.9444 117.685 80.9486 117.5C80.9475 117.313 80.8728 117.134 80.7407 117.002C80.6086 116.87 80.4296 116.795 80.2428 116.794H74.4861C74.2992 116.795 74.1203 116.87 73.9882 117.002C73.856 117.134 73.7813 117.313 73.7803 117.5C73.7845 117.685 73.8606 117.86 73.9924 117.99C74.1242 118.119 74.3013 118.192 74.4861 118.193Z" fill="#F5F5F5"/>
<path id="Vector_22" d="M79.7529 99.4134C79.6104 99.4123 79.474 99.3552 79.3733 99.2544C79.2725 99.1537 79.2154 99.0173 79.2144 98.8748V82.5105C79.2144 82.3676 79.2711 82.2307 79.3721 82.1297C79.4731 82.0287 79.6101 81.9719 79.7529 81.9719C79.8954 81.973 80.0318 82.0301 80.1325 82.1308C80.2333 82.2316 80.2904 82.368 80.2914 82.5105V98.8748C80.2904 99.0173 80.2333 99.1537 80.1325 99.2544C80.0318 99.3552 79.8954 99.4123 79.7529 99.4134Z" fill="#F5F5F5"/>
<path id="Vector_23" d="M84.7911 98.7773H74.7139V100.046H84.7911V98.7773Z" fill="#F0F0F0"/>
<path id="Vector_24" d="M82.5432 89.6222C82.4725 89.6222 82.4046 89.5944 82.3542 89.5447C82.3038 89.4951 82.275 89.4277 82.2739 89.357V81.1891C82.275 81.118 82.3037 81.0501 82.354 80.9998C82.4042 80.9496 82.4721 80.9209 82.5432 80.9198C82.6143 80.9209 82.6822 80.9496 82.7324 80.9998C82.7827 81.0501 82.8114 81.118 82.8125 81.1891V89.3488C82.813 89.3845 82.8064 89.42 82.7932 89.4531C82.7799 89.4863 82.7601 89.5164 82.7351 89.5419C82.71 89.5673 82.6801 89.5875 82.6472 89.6013C82.6143 89.6151 82.5789 89.6222 82.5432 89.6222Z" fill="#F0F0F0"/>
<path id="Vector_25" d="M71.9155 84.0044C71.9155 84.0044 72.1154 76.2935 79.753 76.2935C87.3905 76.2935 87.5863 83.9962 87.5863 83.9962L71.9155 84.0044Z" fill="#F0F0F0"/>
<path id="Vector_26" d="M138.03 94.8982C138.246 94.8982 138.466 94.8982 138.687 94.9186C140.943 95.0817 143.065 96.0546 144.661 97.6582C146.257 99.2618 147.22 101.388 147.373 103.645C147.437 104.671 147.335 105.7 147.071 106.693C146.048 110.676 145.554 114.776 145.602 118.888V130.858C145.603 131.065 145.562 131.271 145.483 131.462C145.404 131.654 145.287 131.828 145.141 131.974C144.994 132.121 144.819 132.237 144.628 132.315C144.436 132.394 144.23 132.434 144.023 132.433H106.027V94.8982H138.03Z" fill="#F0F0F0"/>
<path id="Vector_27" d="M96.6641 104.261C96.6681 102.93 96.9559 101.615 97.5084 100.404C98.0608 99.1932 98.8651 98.1141 99.8677 97.2388C100.87 96.3634 102.048 95.712 103.322 95.3279C104.597 94.9438 105.938 94.8359 107.257 95.0114C108.577 95.1869 109.844 95.6418 110.973 96.3457C112.103 97.0496 113.069 97.9863 113.808 99.0933C114.547 100.2 115.041 101.452 115.258 102.765C115.474 104.079 115.408 105.423 115.064 106.709C114.045 110.692 113.552 114.792 113.6 118.903V130.874C113.6 131.08 113.559 131.285 113.48 131.476C113.4 131.667 113.284 131.84 113.138 131.986C112.992 132.132 112.818 132.247 112.627 132.326C112.436 132.405 112.231 132.445 112.025 132.444H100.026C99.8196 132.444 99.6154 132.404 99.4248 132.325C99.2342 132.246 99.061 132.13 98.9152 131.984C98.7693 131.838 98.6536 131.665 98.5747 131.475C98.4958 131.284 98.4551 131.08 98.4551 130.874V118.185C98.4898 114.329 98.0012 110.486 97.0027 106.762C96.7777 105.947 96.6638 105.106 96.6641 104.261Z" fill="#F5F5F5"/>
<path id="Vector_28" d="M118.928 132.432H153.04V109.642H118.928V132.432Z" fill="#F0F0F0"/>
<path id="Vector_29" d="M181.231 114.799H135.573V79.8472C135.573 77.9688 136.319 76.1673 137.648 74.839C138.976 73.5108 140.777 72.7646 142.656 72.7646H174.148C176.027 72.7646 177.828 73.5108 179.156 74.839C180.485 76.1673 181.231 77.9688 181.231 79.8472V114.799Z" fill="#E0E0E0"/>
<path id="Vector_30" d="M172.309 114.799H126.651V79.5045C126.651 77.7159 127.362 76.0005 128.627 74.7358C129.891 73.471 131.607 72.7605 133.395 72.7605H165.549C167.337 72.7605 169.053 73.471 170.317 74.7358C171.582 76.0005 172.293 77.7159 172.293 79.5045V114.799H172.309Z" fill="#F5F5F5"/>
<path id="Vector_31" d="M150.812 116.843L119.368 116.843C118.827 116.843 118.308 116.628 117.926 116.245C117.543 115.863 117.328 115.344 117.328 114.803V109.634C117.328 109.092 117.543 108.574 117.926 108.191C118.308 107.809 118.827 107.594 119.368 107.594H150.812C150.975 107.594 151.132 107.658 151.247 107.774C151.363 107.89 151.428 108.046 151.428 108.21V116.231C151.427 116.393 151.361 116.549 151.246 116.664C151.13 116.778 150.974 116.843 150.812 116.843Z" fill="#E0E0E0"/>
<path id="Vector_32" d="M184.597 94.8982C184.814 94.8982 185.03 94.8982 185.254 94.9186C187.51 95.0826 189.631 96.0559 191.226 97.6594C192.821 99.2629 193.784 101.389 193.936 103.645C194.005 104.671 193.903 105.701 193.634 106.693C192.611 110.677 192.117 114.779 192.166 118.892V130.862C192.166 131.069 192.125 131.273 192.046 131.464C191.966 131.655 191.85 131.828 191.704 131.974C191.558 132.12 191.384 132.236 191.193 132.315C191.002 132.393 190.797 132.434 190.591 132.433H152.591V94.8982H184.597Z" fill="#F0F0F0"/>
<path id="Vector_33" d="M143.232 104.261C143.215 101.821 144.152 99.4712 145.843 97.7121C147.534 95.9529 149.846 94.9238 152.285 94.844C154.723 94.7642 157.097 95.64 158.899 97.2849C160.702 98.9297 161.791 101.213 161.934 103.649C161.998 104.675 161.896 105.704 161.632 106.697C160.609 110.68 160.115 114.78 160.163 118.892V130.862C160.163 131.279 159.998 131.678 159.703 131.973C159.408 132.267 159.009 132.433 158.592 132.433H146.589C146.383 132.433 146.179 132.392 145.988 132.313C145.798 132.234 145.625 132.119 145.479 131.973C145.333 131.827 145.217 131.654 145.138 131.463C145.059 131.273 145.019 131.068 145.019 130.862V118.186C145.053 114.33 144.565 110.488 143.57 106.762C143.345 105.948 143.231 105.106 143.232 104.261Z" fill="#F5F5F5"/>
<path id="Vector_34" d="M106.692 133.574H183.928C184.078 133.574 184.227 133.545 184.365 133.487C184.503 133.43 184.629 133.346 184.735 133.24C184.841 133.133 184.924 133.007 184.981 132.869C185.038 132.73 185.067 132.582 185.067 132.432H105.554C105.554 132.582 105.583 132.73 105.64 132.869C105.697 133.007 105.78 133.133 105.886 133.24C105.992 133.346 106.118 133.43 106.256 133.487C106.394 133.545 106.543 133.574 106.692 133.574Z" fill="#E0E0E0"/>
<path id="Vector_35" d="M152.436 46.0491H177.278V18.9547L152.436 18.9547V46.0491Z" fill="#E0E0E0"/>
<path id="Vector_36" d="M150.954 46.0491H176.441V18.9547L150.954 18.9547V46.0491Z" fill="#F5F5F5"/>
<path id="Vector_37" d="M174.304 43.9151V21.0883H153.084V43.9151H174.304Z" fill="white"/>
<path id="Vector_38" d="M163.696 26.7308L169.498 36.7836H157.895L163.696 26.7308Z" fill="#F5F5F5"/>
<path id="Vector_39" d="M117.585 61.8669H142.427V34.7725H117.585V61.8669Z" fill="#E0E0E0"/>
<path id="Vector_40" d="M116.105 61.8669H141.592V34.7725H116.105V61.8669Z" fill="#F5F5F5"/>
<path id="Vector_41" d="M139.454 59.7335V36.9066H118.234V59.7335H139.454Z" fill="white"/>
<path id="Vector_42" d="M126.251 52.3899L123.734 48.0285C123.472 47.5733 123.334 47.0572 123.335 46.532C123.336 46.0068 123.474 45.491 123.737 45.0363C124 44.5817 124.378 44.2042 124.833 43.9416C125.288 43.6791 125.803 43.5408 126.329 43.5406H131.375C131.9 43.5413 132.416 43.6799 132.871 43.9424C133.326 44.2049 133.703 44.5822 133.966 45.0366C134.23 45.491 134.369 46.0065 134.37 46.5315C134.372 47.0566 134.235 47.5728 133.974 48.0285L131.457 52.3899C131.195 52.8486 130.816 53.2298 130.359 53.4949C129.902 53.76 129.382 53.8997 128.854 53.8997C128.326 53.8997 127.807 53.76 127.349 53.4949C126.892 53.2298 126.513 52.8486 126.251 52.3899Z" fill="#F5F5F5"/>
</g>
<g id="Shadow">
<path id="path" d="M102.001 152C145.689 152 181.105 149.933 181.105 147.382C181.105 144.831 145.689 142.763 102.001 142.763C58.3123 142.763 22.896 144.831 22.896 147.382C22.896 149.933 58.3123 152 102.001 152Z" fill="#F5F5F5"/>
</g>
<g id="Checklist">
<path id="Vector_43" d="M129.132 18.0737H35.0825L41.2717 146.157H135.321L129.132 18.0737Z" fill="#CEBDF2"/>
<path id="Vector_44" opacity="0.2" d="M129.132 18.0737H35.0825L41.2717 146.157H135.321L129.132 18.0737Z" fill="black"/>
<path id="Vector_45" d="M130 18.0737H35.9512L42.1444 146.157H136.194L130 18.0737Z" fill="#CEBDF2"/>
<path id="Vector_46" opacity="0.2" d="M125.035 22.3823H40.2515L46.1754 140.368L119.899 140.27L132.15 129.41L125.035 22.3823Z" fill="black"/>
<path id="Vector_47" d="M125.684 22.3784C126.588 57.7127 129.441 92.9701 134.231 127.99C127.513 132.614 120.829 137.238 114.179 141.861H50.7694C44.7844 102.291 41.2716 62.3859 40.2515 22.3784H125.684Z" fill="white"/>
<path id="Vector_48" d="M134.231 127.989C127.513 132.613 120.829 137.237 114.179 141.861C115.631 135.741 117.145 129.621 118.72 123.501L134.231 127.989Z" fill="#EBEBEB"/>
<path id="Vector_49" d="M63.2422 33.1739C63.4027 37.4931 63.5904 41.815 63.8052 46.1397H50.8435C50.6259 41.815 50.4382 37.4931 50.2805 33.1739H63.2422ZM64.5641 31.8071H48.8647C49.047 37.0375 49.2741 42.2706 49.5461 47.5065H65.2495C64.9775 42.2733 64.7504 37.0402 64.5682 31.8071H64.5641Z" fill="#CEBDF2"/>
<path id="Vector_50" d="M116.206 38.0409H71.8091C71.7683 37.0658 71.7315 36.0867 71.6948 35.1116H116.088C116.125 36.0867 116.165 37.0658 116.206 38.0409Z" fill="#E0E0E0"/>
<path id="Vector_51" d="M106.827 44.2011H72.0829C72.038 43.2219 71.989 42.2468 71.9482 41.2717H106.688C106.735 42.2482 106.781 43.2246 106.827 44.2011Z" fill="#E0E0E0"/>
<path id="Vector_52" d="M64.5144 58.5659C64.7864 62.8905 65.0897 67.2152 65.4243 71.5398H52.4584C52.1239 67.2152 51.8206 62.8905 51.5486 58.5659H64.5144ZM65.7955 57.1991H50.0962C50.4171 62.4349 50.783 67.6708 51.1937 72.9066H66.9134C66.5054 67.6735 66.1382 62.4376 65.8118 57.1991H65.7955Z" fill="#CEBDF2"/>
<path id="Vector_53" d="M89.5163 63.4379H73.1968C73.1315 62.4588 73.0622 61.4837 73.001 60.5045H89.3204C89.3816 61.4837 89.4469 62.4588 89.5163 63.4379Z" fill="#E0E0E0"/>
<path id="Vector_54" d="M104.967 63.4379H92.9678C92.9025 62.4588 92.8332 61.4837 92.772 60.5045H104.771C104.832 61.4837 104.897 62.4588 104.967 63.4379Z" fill="#E0E0E0"/>
<path id="Vector_55" d="M112.498 69.6025H73.6454C73.572 68.6233 73.5026 67.6482 73.4292 66.6691H112.282C112.355 67.6482 112.425 68.6233 112.498 69.6025Z" fill="#E0E0E0"/>
<path id="Vector_56" d="M66.4608 83.972C66.8498 88.2966 67.2686 92.6213 67.7174 96.946H54.7516C54.3028 92.6213 53.884 88.2966 53.495 83.972H66.4608ZM67.7093 82.6052H52.0059C52.4682 87.8438 52.9741 93.081 53.5236 98.3168H69.227C68.683 93.0782 68.1771 87.8411 67.7093 82.6052Z" fill="#CEBDF2"/>
<path id="Vector_57" d="M119.992 92.078H75.5908L75.8846 95.0073H120.286L119.992 92.078Z" fill="#E0E0E0"/>
<path id="Vector_58" d="M109.752 85.9136H75.0083C75.0981 86.8887 75.1878 87.8678 75.2817 88.8429H110.022C109.932 87.8678 109.838 86.9009 109.752 85.9136Z" fill="#E0E0E0"/>
<path id="Vector_59" d="M69.0835 109.377C69.5894 113.701 70.1239 118.025 70.6869 122.347H57.7211C57.158 118.027 56.6236 113.704 56.1177 109.377H69.0835ZM70.3075 108.01H54.5918C55.1902 113.248 55.8362 118.483 56.5297 123.713H72.2168C71.5287 118.483 70.8827 113.248 70.2789 108.01H70.3075Z" fill="#CEBDF2"/>
<path id="Vector_60" d="M122.437 114.237H78.0354C77.9171 113.257 77.7988 112.282 77.6846 111.303H122.082C122.2 112.295 122.314 113.27 122.437 114.237Z" fill="#E0E0E0"/>
<path id="Vector_61" d="M99.018 120.409H78.8063C78.6798 119.434 78.5575 118.455 78.4351 117.48H98.6467C98.7691 118.455 98.8915 119.434 99.018 120.409Z" fill="#E0E0E0"/>
<path id="Vector_62" d="M111.086 120.409H102.36C102.233 119.434 102.111 118.455 101.988 117.48H110.715C110.838 118.455 110.976 119.434 111.086 120.409Z" fill="#E0E0E0"/>
<path id="Vector_63" d="M57.5298 44.2862L56.9546 43.3724C55.698 41.3732 53.1358 39.5903 52.2505 39.0681L52.9114 37.8972C54.6484 38.9519 56.2003 40.2847 57.5054 41.8424C59.48 39.1538 62.4012 36.3754 66.3995 33.3889L67.244 34.4905C62.9765 37.685 59.99 40.6103 58.1051 43.4254L57.5298 44.2862Z" fill="#CEBDF2"/>
<path id="Vector_64" d="M59.0805 69.6884L58.4808 68.7746C57.1752 66.7754 54.5641 64.9884 53.6665 64.4662L54.2907 63.2953C56.0608 64.3504 57.6492 65.684 58.9948 67.2446C60.896 64.5519 63.7397 61.7735 67.6605 58.783C67.9501 59.1501 68.2439 59.5173 68.5335 59.8886C64.3517 63.0872 61.4427 66.0084 59.6354 68.8276C59.4477 69.1132 59.2641 69.4029 59.0805 69.6884Z" fill="#CEBDF2"/>
<path id="Vector_65" d="M61.3322 95.158L60.7079 94.2442C59.3453 92.245 56.6852 90.458 55.7754 89.9399C55.9712 89.5319 56.1834 89.1566 56.3711 88.769C58.1687 89.8258 59.7903 91.1569 61.1771 92.7142C63.009 90.0215 65.7792 87.2472 69.6143 84.2526L70.52 85.3582C66.4402 88.5568 63.5843 91.478 61.8585 94.2972L61.3322 95.158Z" fill="#CEBDF2"/>
<path id="Vector_66" d="M102.461 134.824C100.054 134.824 98.667 133.935 97.443 133.151C96.2191 132.368 95.1665 131.691 93.1347 131.691C91.1029 131.691 90.1972 132.401 89.2384 133.151C88.2796 133.902 87.1046 134.824 84.6975 134.824C82.2904 134.824 80.9032 133.935 79.6834 133.151C78.4635 132.368 77.4109 131.691 75.375 131.691C73.3392 131.691 72.4375 132.401 71.4787 133.151C70.52 133.902 69.345 134.824 66.9419 134.824C64.5389 134.824 63.1476 133.935 61.9237 133.151C60.6997 132.368 59.6512 131.691 57.6153 131.691C57.5623 131.283 57.5052 130.907 57.4521 130.516C59.8593 130.516 61.2423 131.405 62.4663 132.188C63.6903 132.972 64.7388 133.649 66.7706 133.649C68.8023 133.649 69.7081 132.939 70.6668 132.188C71.6256 131.438 72.8047 130.516 75.2118 130.516C77.6189 130.516 78.9979 131.405 80.2219 132.188C81.4459 132.972 82.4985 133.649 84.5302 133.649C86.562 133.649 87.4677 132.939 88.4265 132.188C89.3853 131.438 90.5644 130.516 92.9715 130.516C95.3786 130.516 96.7617 131.405 97.9856 132.188C99.2096 132.972 100.258 133.649 102.294 133.649C102.347 134.041 102.408 134.432 102.461 134.824Z" fill="#EBEBEB"/>
<path id="Vector_67" d="M105.913 21.2427C104.534 17.5708 101.348 15.1596 97.9209 15.1596H90.9362C90.4162 15.1551 89.909 14.998 89.4775 14.7079C89.046 14.4178 88.7091 14.0075 88.5086 13.5277C88.0149 12.355 87.1892 11.3523 86.1331 10.6426C85.077 9.93302 83.8366 9.54751 82.5643 9.5335C81.3335 9.52102 80.1308 9.90168 79.1314 10.6201C78.132 11.3385 77.3879 12.3571 77.0075 13.5277C76.8525 14.0066 76.5483 14.4234 76.1394 14.7171C75.7305 15.0107 75.2384 15.1658 74.735 15.1596H67.7544C64.3232 15.1596 61.3694 17.5831 60.3494 21.2427L59.9414 22.6992H106.452L105.913 21.2427Z" fill="#263238"/>
<path id="Vector_68" d="M106.162 24.1367H60.3859C59.9998 24.1322 59.6298 23.9816 59.3504 23.7151C59.0711 23.4486 58.9031 23.0861 58.8804 22.7006C58.8704 22.5154 58.8984 22.3302 58.9627 22.1562C59.0269 21.9823 59.1262 21.8233 59.2542 21.6891C59.3822 21.555 59.5364 21.4485 59.7072 21.3761C59.8779 21.3038 60.0617 21.2672 60.2472 21.2686H106.023C106.409 21.273 106.778 21.4231 107.057 21.6888C107.337 21.9544 107.505 22.3159 107.529 22.7006C107.539 22.8861 107.512 23.0719 107.448 23.2463C107.384 23.4207 107.285 23.5802 107.157 23.7148C107.028 23.8494 106.874 23.9563 106.703 24.0289C106.532 24.1014 106.348 24.1382 106.162 24.1367Z" fill="#CEBDF2"/>
<path id="Vector_69" opacity="0.2" d="M106.162 24.1367H60.3859C59.9998 24.1322 59.6298 23.9816 59.3504 23.7151C59.0711 23.4486 58.9031 23.0861 58.8804 22.7006C58.8704 22.5154 58.8984 22.3302 58.9627 22.1562C59.0269 21.9823 59.1262 21.8233 59.2542 21.6891C59.3822 21.555 59.5364 21.4485 59.7072 21.3761C59.8779 21.3038 60.0617 21.2672 60.2472 21.2686H106.023C106.409 21.273 106.778 21.4231 107.057 21.6888C107.337 21.9544 107.505 22.3159 107.529 22.7006C107.539 22.8861 107.512 23.0719 107.448 23.2463C107.384 23.4207 107.285 23.5802 107.157 23.7148C107.028 23.8494 106.874 23.9563 106.703 24.0289C106.532 24.1014 106.348 24.1382 106.162 24.1367Z" fill="black"/>
</g>
<g id="Character">
<path id="Vector_70" d="M147.254 144.928H144.264L143.966 138.005H146.956L147.254 144.928Z" fill="#FFC3BD"/>
<path id="Vector_71" d="M165.201 144.928H162.211L160.709 138.005H163.696L165.201 144.928Z" fill="#FFC3BD"/>
<path id="Vector_72" d="M161.999 144.582H165.356C165.416 144.582 165.473 144.602 165.519 144.639C165.565 144.676 165.597 144.728 165.609 144.786L166.201 147.446C166.214 147.511 166.213 147.577 166.197 147.641C166.182 147.705 166.152 147.765 166.11 147.816C166.068 147.867 166.015 147.908 165.955 147.935C165.896 147.963 165.83 147.977 165.764 147.976C164.594 147.956 164.022 147.887 162.545 147.887C161.636 147.887 159.763 147.98 158.51 147.98C157.258 147.98 157.091 146.756 157.605 146.63C159.91 146.124 160.775 145.431 161.513 144.765C161.647 144.647 161.82 144.582 161.999 144.582Z" fill="#263238"/>
<path id="Vector_73" d="M144.284 144.582H147.548C147.607 144.582 147.665 144.602 147.711 144.639C147.757 144.676 147.789 144.728 147.801 144.786L148.392 147.446C148.407 147.508 148.407 147.573 148.394 147.636C148.38 147.698 148.353 147.757 148.314 147.808C148.275 147.859 148.225 147.9 148.168 147.929C148.111 147.958 148.048 147.974 147.984 147.976C146.805 147.956 145.104 147.887 143.623 147.887C141.893 147.887 140.4 147.98 138.368 147.98C137.144 147.98 136.802 146.756 137.316 146.63C139.653 146.116 141.563 146.063 143.582 144.814C143.791 144.676 144.034 144.595 144.284 144.582Z" fill="#263238"/>
<path id="Vector_74" d="M150.143 35.8699C149.735 38.0567 149.498 40.7657 151.028 42.2263C151.028 42.2263 150.151 44.4458 146.087 44.4458C142.375 44.4458 144.235 42.2263 144.235 42.2263C146.683 41.6429 146.544 38.6279 146.12 36.9225L150.143 35.8699Z" fill="#FFC3BD"/>
<path id="Vector_75" d="M143.068 42.5325C143.15 41.9898 144.105 41.3575 145.19 41.1208C146.275 40.8842 150.445 40.3579 151.718 40.8842C152.991 41.4105 151.497 42.969 151.497 42.969L143.068 42.5325Z" fill="#CEBDF2"/>
<path id="Vector_76" opacity="0.4" d="M143.068 42.5325C143.15 41.9898 144.105 41.3575 145.19 41.1208C146.275 40.8842 150.445 40.3579 151.718 40.8842C152.991 41.4105 151.497 42.969 151.497 42.969L143.068 42.5325Z" fill="white"/>
<path id="Vector_77" opacity="0.2" d="M143.966 138.009L144.121 141.575H147.111L146.956 138.009H143.966Z" fill="black"/>
<path id="Vector_78" opacity="0.2" d="M163.7 138.009H160.709L161.485 141.575H164.475L163.7 138.009Z" fill="black"/>
<path id="Vector_79" d="M157.221 44.9192L153.619 47.3263C153.619 47.3263 158.792 56.5264 158.359 57.9992C157.768 60.0065 156.944 64.3924 155.822 66.62C155.969 67.1014 156.715 68.1989 157.131 68.3866C159.987 66.2161 162.872 59.4109 162.766 57.5056C162.517 53.185 157.221 44.9192 157.221 44.9192Z" fill="#FFC3BD"/>
<path id="Vector_80" d="M155.822 66.628L152.966 66.4077L154.464 69.5533C154.464 69.5533 156.956 69.6634 157.373 67.7582L155.822 66.628Z" fill="#B55B52"/>
<path id="Vector_81" d="M169.938 81.9687L169.697 82.4216L168.082 85.4774L110.727 55.1517L112.579 51.6431L169.938 81.9687Z" fill="#CEBDF2"/>
<path id="Vector_82" d="M173.647 74.9635L172.464 77.1992L171.795 78.464L114.436 48.1383L116.288 44.6296L173.647 74.9635Z" fill="#CEBDF2"/>
<path id="Vector_83" d="M114.455 48.128L112.599 51.6323L169.934 82.0026L171.79 78.4983L114.455 48.128Z" fill="#CEBDF2"/>
<path id="Vector_84" opacity="0.2" d="M114.455 48.128L112.599 51.6323L169.934 82.0026L171.79 78.4983L114.455 48.128Z" fill="black"/>
<path id="Vector_85" d="M108.255 45.0941L106.586 48.2519L110.728 55.151L116.288 44.6331L108.255 45.0941Z" fill="#CEBDF2"/>
<path id="Vector_86" opacity="0.8" d="M108.255 45.0941L106.586 48.2519L110.728 55.151L116.288 44.6331L108.255 45.0941Z" fill="white"/>
<path id="Vector_87" d="M104.812 45.2948L106.586 48.2527L108.255 45.0948L104.812 45.2948Z" fill="#CEBDF2"/>
<path id="Vector_88" d="M150.669 67.8397L152.163 70.6222L154.476 69.5533L152.979 66.4077L150.669 67.8397Z" fill="#B55B52"/>
<path id="Vector_89" d="M156.364 42.9036C159.192 43.3116 162.431 53.1033 162.431 53.1033L156.491 56.4569C156.491 56.4569 153.876 51.814 152.59 48.3462C151.236 44.7192 153.333 42.463 156.364 42.9036Z" fill="#263238"/>
<path id="Vector_90" opacity="0.2" d="M154.721 46.2607C153.435 45.0857 154.223 50.1162 154.835 53.3352C155.149 53.9635 155.447 54.5347 155.7 55.012C157.132 52.4825 156.491 47.8804 154.721 46.2607Z" fill="black"/>
<path id="Vector_91" d="M139.621 43.0592C139.621 43.0592 136.092 52.0839 139.441 68.8929H155.446C155.557 66.445 154.014 54.4665 156.381 42.9042C154.613 42.5629 152.825 42.3366 151.028 42.2269C148.765 42.0962 146.497 42.0962 144.235 42.2269C142.677 42.3826 141.134 42.6609 139.621 43.0592Z" fill="#263238"/>
<path id="Vector_92" d="M142.081 47.2527L138.05 45.6575C138.05 45.6575 133.407 55.135 131.93 55.6123C129.943 56.2651 125.863 58.0603 123.391 58.4111C123.081 58.8191 122.599 60.0431 122.677 60.4919C126.083 61.6057 133.333 60.1288 134.835 58.9619C138.278 56.3018 142.081 47.2527 142.081 47.2527Z" fill="#FFC3BD"/>
<path id="Vector_93" opacity="0.2" d="M142.534 46.1761C141.869 44.6421 140.596 44.0016 139.27 44.226C138.756 46.1068 137.887 50.2397 138.046 56.4656L138.997 56.9225C138.997 56.9225 143.672 48.7995 142.534 46.1761Z" fill="black"/>
<path id="Vector_94" d="M143.17 45.1025C144.174 47.7789 139.09 55.6531 139.09 55.6531L133.109 52.3892C134.008 49.9401 135.166 47.5944 136.565 45.3922C138.666 42.2548 142.065 42.1691 143.17 45.1025Z" fill="#263238"/>
<path id="Vector_95" d="M123.538 58.4032L119.98 59.158L121.784 62.4504C122.778 61.9558 123.682 61.2964 124.456 60.5003L123.538 58.4032Z" fill="#FFC3BD"/>
<path id="Vector_96" d="M118.299 59.9049L119.719 61.8714L121.784 62.467L119.98 59.1746L118.299 59.9049Z" fill="#FFC3BD"/>
<path id="Vector_97" d="M143.362 32.7248C143.362 32.9656 143.211 33.1328 143.052 33.1328C142.893 33.1328 142.779 32.9207 142.795 32.68C142.811 32.4392 142.946 32.272 143.105 32.272C143.264 32.272 143.378 32.4841 143.362 32.7248Z" fill="#263238"/>
<path id="Vector_98" d="M143.574 32.7449C143.245 33.4637 142.818 34.1337 142.305 34.7359C142.463 34.8633 142.646 34.9546 142.843 35.0032C143.04 35.0519 143.245 35.0567 143.443 35.0174L143.574 32.7449Z" fill="#ED847E"/>
<path id="Vector_99" d="M143.056 31.8923C143.034 31.8878 143.014 31.8795 142.995 31.8679C142.979 31.8579 142.965 31.8449 142.955 31.8296C142.944 31.8142 142.936 31.7969 142.933 31.7786C142.929 31.7603 142.929 31.7415 142.932 31.7232C142.936 31.7048 142.943 31.6874 142.954 31.672C143.072 31.481 143.234 31.3207 143.426 31.2044C143.618 31.0881 143.835 31.019 144.06 31.0029C144.097 31.0049 144.132 31.0206 144.158 31.0469C144.185 31.0733 144.2 31.1085 144.202 31.1457C144.202 31.1836 144.187 31.2199 144.161 31.2467C144.134 31.2735 144.097 31.2885 144.06 31.2885C143.886 31.3047 143.718 31.3616 143.57 31.4544C143.422 31.5472 143.297 31.6734 143.207 31.823C143.192 31.8488 143.17 31.8694 143.142 31.8819C143.115 31.8943 143.085 31.898 143.056 31.8923Z" fill="#263238"/>
<path id="Vector_100" d="M151.473 32.5166C151.122 35.4622 151.065 37.2002 149.486 38.6364C147.107 40.7905 143.537 39.2279 142.999 36.2333C142.517 33.5406 143.174 29.1792 146.136 28.1674C146.788 27.9419 147.486 27.8867 148.165 28.007C148.845 28.1273 149.482 28.4192 150.016 28.8549C150.551 29.2906 150.965 29.8557 151.22 30.4965C151.475 31.1374 151.562 31.8327 151.473 32.5166Z" fill="#FFC3BD"/>
<path id="Vector_101" d="M145.536 33.0917C144.504 33.2956 142.856 31.0028 144.202 29.0567C143.521 28.718 141.297 30.0562 140.461 28.8078C139.624 27.5594 141.946 26.8943 141.501 25.8376C143.076 26.16 140.481 28.1265 141.978 27.9347C143.476 27.7429 145.202 24.9768 146.874 26.111C149.832 28.0979 153.863 24.785 152.219 28.9343C154.234 28.5263 155.613 30.9089 153.692 32.5613C149.861 35.8456 152.219 36.278 149.791 36.4453C148.576 36.5351 145.748 35.0867 145.536 33.0917Z" fill="#263238"/>
<path id="Vector_102" d="M147.066 33.8637C146.925 34.1582 146.726 34.4214 146.482 34.6379C146.237 34.8544 145.952 35.0198 145.642 35.1243C144.827 35.4058 144.357 34.6755 144.549 33.8718C144.72 33.1456 145.365 32.1256 146.21 32.1991C146.395 32.2172 146.573 32.2815 146.727 32.3861C146.881 32.4907 147.006 32.6323 147.092 32.7979C147.177 32.9635 147.219 33.1478 147.215 33.334C147.21 33.5202 147.159 33.7023 147.066 33.8637Z" fill="#FFC3BD"/>
<path id="Vector_103" d="M145.112 68.8928C145.112 68.8928 148.507 91.7401 150.367 100.308C152.407 109.692 160.089 140.898 160.089 140.898H165.565C165.565 140.898 160.502 110.438 159.335 101.156C158.074 91.0873 155.43 68.9051 155.43 68.9051L145.112 68.8928Z" fill="#CEBDF2"/>
<path id="Vector_104" opacity="0.2" d="M145.112 68.8928C145.112 68.8928 148.507 91.7401 150.367 100.308C152.407 109.692 160.089 140.898 160.089 140.898H165.565C165.565 140.898 160.502 110.438 159.335 101.156C158.074 91.0873 155.43 68.9051 155.43 68.9051L145.112 68.8928Z" fill="white"/>
<path id="Vector_105" opacity="0.2" d="M149.143 76.8809C148.891 76.5219 148.662 76.3995 148.45 76.4729H148.405C148.357 76.494 148.311 76.5215 148.27 76.5545C148.227 76.5898 148.187 76.6294 148.152 76.6728L148.087 76.7544L148.001 76.8891C147.93 77.0078 147.869 77.1319 147.818 77.2603C147.785 77.3378 147.752 77.4194 147.724 77.501C147.695 77.5826 147.65 77.7091 147.618 77.8233C147.585 77.9376 147.524 78.1334 147.479 78.3007C147.479 78.3456 147.458 78.3864 147.446 78.4312C147.434 78.4761 147.401 78.6189 147.381 78.7128C147.361 78.8066 147.344 78.8759 147.328 78.9575C147.291 79.1167 147.259 79.2839 147.226 79.4553C147.193 79.6266 147.157 79.8266 147.124 80.0183C147.124 80.0836 147.104 80.1489 147.091 80.2182C147.05 80.463 147.014 80.7119 146.977 80.9689C147.883 86.6563 148.96 93.1759 149.833 97.7249C149.874 97.5781 149.919 97.423 149.955 97.2558C150.134 96.4968 150.27 95.7286 150.363 94.9547C151.134 89.0919 150.779 79.2187 149.143 76.8809Z" fill="black"/>
<path id="Vector_106" d="M139.442 68.8928C139.442 68.8928 139.034 91.2423 139.356 100.361C139.695 109.842 143.007 140.886 143.007 140.886H148.071C148.071 140.886 148.254 110.393 148.479 101.083C148.723 90.9323 149.947 68.8928 149.947 68.8928H139.442Z" fill="#CEBDF2"/>
<path id="Vector_107" opacity="0.2" d="M139.442 68.8928C139.442 68.8928 139.034 91.2423 139.356 100.361C139.695 109.842 143.007 140.886 143.007 140.886H148.071C148.071 140.886 148.254 110.393 148.479 101.083C148.723 90.9323 149.947 68.8928 149.947 68.8928H139.442Z" fill="white"/>
<path id="Vector_108" d="M148.405 139.336C148.425 139.336 148.405 140.988 148.405 140.988H142.567L142.322 139.132L148.405 139.336Z" fill="#263238"/>
<path id="Vector_109" d="M165.565 139.458C165.589 139.458 165.838 140.988 165.838 140.988H159.82L159.29 139.233L165.565 139.458Z" fill="#263238"/>
<path id="Vector_110" d="M161.012 145.105C160.808 145.121 160.605 145.068 160.436 144.954C160.381 144.909 160.339 144.851 160.313 144.785C160.287 144.72 160.279 144.648 160.289 144.578C160.29 144.537 160.301 144.498 160.322 144.462C160.343 144.427 160.372 144.398 160.408 144.378C160.738 144.211 161.705 144.786 161.815 144.868C161.826 144.876 161.835 144.888 161.84 144.901C161.845 144.914 161.846 144.928 161.844 144.941C161.842 144.955 161.836 144.968 161.826 144.978C161.817 144.988 161.804 144.995 161.791 144.998C161.536 145.062 161.274 145.098 161.012 145.105ZM160.567 144.489C160.536 144.482 160.504 144.482 160.473 144.489C160.459 144.497 160.447 144.509 160.439 144.523C160.431 144.537 160.427 144.554 160.428 144.57C160.422 144.618 160.427 144.666 160.445 144.711C160.462 144.756 160.49 144.796 160.526 144.827C160.859 144.982 161.239 145.002 161.587 144.884C161.275 144.688 160.929 144.553 160.567 144.489Z" fill="#CEBDF2"/>
<path id="Vector_111" d="M161.775 145.003C161.765 145.006 161.753 145.006 161.742 145.003C161.432 144.836 160.837 144.187 160.898 143.848C160.908 143.797 160.936 143.75 160.977 143.716C161.018 143.683 161.069 143.665 161.122 143.665C161.176 143.657 161.231 143.661 161.283 143.676C161.335 143.692 161.384 143.718 161.424 143.755C161.771 144.036 161.832 144.901 161.832 144.938C161.832 144.95 161.829 144.963 161.823 144.974C161.818 144.985 161.81 144.995 161.8 145.003C161.791 145.004 161.783 145.004 161.775 145.003ZM161.171 143.779H161.159C161.065 143.779 161.057 143.832 161.053 143.852C161.016 144.048 161.396 144.542 161.706 144.774C161.684 144.434 161.561 144.109 161.351 143.84C161.325 143.818 161.294 143.801 161.261 143.792C161.228 143.783 161.193 143.781 161.159 143.787L161.171 143.779Z" fill="#CEBDF2"/>
<path id="Vector_112" d="M143.04 145.104C142.784 145.128 142.527 145.063 142.313 144.921C142.266 144.878 142.23 144.824 142.207 144.765C142.185 144.705 142.176 144.641 142.183 144.578C142.183 144.539 142.194 144.501 142.214 144.468C142.234 144.435 142.263 144.408 142.297 144.39C142.66 144.186 143.864 144.798 143.998 144.868C144.012 144.874 144.023 144.885 144.03 144.898C144.036 144.911 144.038 144.927 144.035 144.941C144.033 144.956 144.027 144.969 144.016 144.98C144.006 144.99 143.992 144.997 143.978 144.998C143.669 145.064 143.355 145.1 143.04 145.104ZM142.497 144.488C142.452 144.487 142.408 144.495 142.366 144.513C142.353 144.521 142.341 144.532 142.334 144.546C142.326 144.559 142.322 144.575 142.322 144.59C142.316 144.632 142.321 144.674 142.335 144.714C142.35 144.753 142.375 144.788 142.407 144.815C142.591 144.978 143.084 145.006 143.745 144.896C143.355 144.691 142.933 144.553 142.497 144.488Z" fill="#CEBDF2"/>
<path id="Vector_113" d="M143.966 145.003H143.937C143.574 144.84 142.86 144.187 142.917 143.856C142.917 143.779 142.987 143.677 143.178 143.66C143.251 143.65 143.325 143.655 143.395 143.675C143.466 143.696 143.531 143.731 143.586 143.779C143.966 144.093 144.043 144.897 144.047 144.933C144.049 144.945 144.047 144.957 144.042 144.968C144.037 144.979 144.029 144.988 144.019 144.995C144.003 145.004 143.984 145.007 143.966 145.003ZM143.236 143.779H143.207C143.08 143.779 143.072 143.84 143.068 143.86C143.036 144.06 143.521 144.57 143.884 144.791C143.849 144.448 143.706 144.125 143.476 143.869C143.407 143.816 143.322 143.788 143.236 143.787V143.779Z" fill="#CEBDF2"/>
</g>
</g>
</svg>
