<?xml version="1.0" standalone="no"?>
<!DOCTYPE svg PUBLIC "-//W3C//DTD SVG 1.1//EN" "http://www.w3.org/Graphics/SVG/1.1/DTD/svg11.dtd" >
<svg xmlns="http://www.w3.org/2000/svg">
<metadata>Generated by IcoMoon</metadata>
<defs>
<font id="tool-system-icon" horiz-adv-x="1024">
<font-face units-per-em="1024" ascent="960" descent="-64" />
<missing-glyph horiz-adv-x="1024" />
<glyph unicode="&#x20;" horiz-adv-x="512" d="" />
<glyph unicode="&#xe900;" glyph-name="add" d="M544 576c0 17.664-14.336 32-32 32s-32-14.336-32-32v-96h-96c-17.664 0-32-14.336-32-32s14.336-32 32-32h96v-96c0-17.664 14.336-32 32-32s32 14.336 32 32v96h96c17.664 0 32 14.336 32 32s-14.336 32-32 32h-96v96zM512 906.656c-253.312 0-458.656-205.344-458.656-458.656s205.344-458.656 458.656-458.656c253.312 0 458.656 205.344 458.656 458.656s-205.344 458.656-458.656 458.656zM117.344 448c0 217.952 176.704 394.656 394.656 394.656s394.656-176.704 394.656-394.656c0-217.952-176.704-394.656-394.656-394.656s-394.656 176.704-394.656 394.656z" />
<glyph unicode="&#xe901;" glyph-name="arrow-down" d="M189.024 596.832c11.488 13.408 31.712 14.976 45.12 3.456l277.856-238.144 277.856 238.144c13.408 11.488 33.632 9.952 45.12-3.456s9.952-33.632-3.488-45.12l-298.656-256c-12-10.272-29.664-10.272-41.664 0l-298.656 256c-13.408 11.488-14.976 31.712-3.456 45.12z" />
<glyph unicode="&#xe902;" glyph-name="arrow-left" d="M660.832 770.976c13.408-11.488 14.976-31.712 3.456-45.12l-238.144-277.856 238.144-277.856c11.488-13.408 9.952-33.632-3.456-45.12s-33.632-9.952-45.12 3.488l-256 298.656c-10.272 12-10.272 29.664 0 41.664l256 298.656c11.488 13.408 31.712 14.976 45.12 3.456z" />
<glyph unicode="&#xe903;" glyph-name="arrow-right" d="M363.168 770.976c13.408 11.488 33.632 9.952 45.12-3.456l256-298.656c10.272-12 10.272-29.664 0-41.664l-256-298.656c-11.488-13.408-31.712-14.976-45.12-3.488s-14.976 31.712-3.456 45.12l238.144 277.856-238.144 277.856c-11.488 13.408-9.952 33.632 3.456 45.12z" />
<glyph unicode="&#xe904;" glyph-name="arrow-up" d="M491.168 600.288c12 10.272 29.664 10.272 41.664 0l298.656-256c13.408-11.488 14.976-31.712 3.488-45.12s-31.712-14.976-45.12-3.456l-277.856 238.144-277.856-238.144c-13.408-11.488-33.632-9.952-45.12 3.456s-9.952 33.632 3.456 45.12l298.656 256z" />
<glyph unicode="&#xe905;" glyph-name="auto-check" d="M225.504 365.408l49.088-8.416c5.024-16.416 11.744-32.352 20.096-47.52l-27.712-38.304c-4.832-6.688-4.672-15.584 0.384-22.112 20.448-26.368 45.056-49.344 73.152-68.32 6.912-4.672 16.16-4.608 23.008 0.128l36.736 25.44c15.296-8.096 31.392-14.656 48.064-19.52l7.552-41.92c1.44-8 8.032-14.24 16.416-15.52 16.896-2.56 34.208-3.872 51.488-3.872 16.928 0 33.888 1.312 50.4 3.872 8.32 1.312 14.912 7.52 16.32 15.488l7.552 41.888c16.672 4.832 32.768 11.392 48.128 19.552l37.12-25.504c6.816-4.672 16-4.736 22.88-0.128 27.968 18.688 52.512 41.568 73.024 68 5.056 6.528 5.216 15.392 0.384 22.080l-27.904 38.688c8.32 15.2 15.040 31.104 20.064 47.52l49.088 8.416c8.288 1.408 14.752 7.712 16.064 15.712 2.72 16.416 4.032 32.192 4.032 48.192 0 16.544-1.344 33.12-4.032 49.28-1.312 8-7.84 14.336-16.192 15.712l-48.832 8.096c-4.832 16.096-11.584 32.064-20.192 47.712l27.552 38.272c4.768 6.624 4.64 15.424-0.32 21.952-19.904 26.112-44.48 49.152-73.056 68.448-6.912 4.672-16.16 4.608-23.008-0.128l-36.8-25.472c-15.392 8.096-31.456 14.56-48 19.36l-7.552 42.24c-1.44 7.968-8 14.208-16.352 15.52-34.272 5.344-70.848 5.088-102.336-0.416-8.16-1.44-14.528-7.616-15.968-15.424l-7.552-41.92c-16.608-4.832-32.704-11.328-48.064-19.392l-36.64 25.184c-6.88 4.704-16.128 4.736-23.008 0.064-28.192-19.168-52.768-42.112-73.088-68.256-5.088-6.528-5.248-15.456-0.384-22.144l27.488-37.888c-8.608-15.616-15.36-31.584-20.192-47.68l-48.48-8.064c-8.16-1.376-14.592-7.456-16.096-15.264-2.976-15.616-4.48-32.352-4.48-49.728 0-16.032 1.312-31.808 4.032-48.192 1.312-7.968 7.776-14.272 16.064-15.712zM246.816 459.296l47.040 7.84c7.872 1.312 14.144 7.040 15.904 14.496 4.768 20.192 13.28 40.384 25.28 60 3.904 6.368 3.584 14.336-0.832 20.416l-26.176 36.096c13.088 15.168 27.904 28.992 44.288 41.28l35.264-24.256c6.464-4.448 15.136-4.736 21.952-0.736 19.040 11.264 39.552 19.552 60.96 24.608 7.616 1.824 13.408 7.776 14.752 15.2l7.232 40.288c19.392 2.208 40.768 2.336 61.44 0.16l7.232-40.416c1.344-7.424 7.136-13.408 14.784-15.2 21.248-5.024 41.76-13.28 60.896-24.608 6.816-4.032 15.488-3.744 21.984 0.768l35.488 24.576c16.512-12.32 31.264-26.144 44.096-41.248l-26.336-36.576c-4.352-6.048-4.672-13.984-0.768-20.352 12-19.648 20.512-39.808 25.28-60 1.76-7.488 8.064-13.184 15.936-14.496l47.136-7.808c1.12-9.92 1.696-19.968 1.696-30.016 0-9.664-0.544-19.264-1.696-28.992l-47.264-8.096c-7.712-1.312-13.888-6.912-15.744-14.208-5.344-21.12-13.856-41.312-25.344-60.096-3.904-6.4-3.584-14.368 0.864-20.448l26.56-36.736c-13.12-15.264-27.872-28.992-44.064-41.024l-35.904 24.672c-6.56 4.48-15.264 4.736-22.048 0.672-18.976-11.36-39.424-19.68-60.8-24.736-7.648-1.824-13.44-7.776-14.784-15.2l-7.2-40.064c-20.352-2.112-41.152-2.048-61.504 0.032l-7.2 40.032c-1.344 7.424-7.104 13.376-14.752 15.168-21.504 5.088-41.984 13.44-60.832 24.736-6.816 4.096-15.584 3.84-22.112-0.704l-35.488-24.576c-16.288 12.192-31.104 26.016-44.224 41.28l26.368 36.416c4.448 6.080 4.768 14.048 0.864 20.448-11.488 18.784-20.032 39.008-25.344 60.096-1.856 7.296-8.032 12.864-15.744 14.208l-47.232 8.096c-1.12 9.76-1.696 19.328-1.696 28.992 0 10.336 0.608 20.384 1.792 29.984zM523.168 274.592c89.376 0 162.080 69.632 162.080 155.2s-72.704 155.2-162.080 155.2c-89.376 0-162.048-69.632-162.048-155.2s72.704-155.2 162.048-155.2zM523.168 547.072c67.52 0 122.464-52.608 122.464-117.28s-54.944-117.248-122.464-117.248c-67.52 0-122.464 52.608-122.464 117.248s54.944 117.28 122.464 117.28zM448.992 8.032c182.24-30.88 362.432 49.152 458.272 192.608l7.104-31.776c2.304-10.336 12.96-16.768 23.52-14.592 10.688 2.208 17.504 12.256 15.232 22.496l-18.016 80.704c-2.304 10.24-12.864 16.8-23.52 14.592l-84.064-17.216c-10.688-2.208-17.504-12.256-15.232-22.496s12.896-16.832 23.52-14.592l41.568 8.512c-87.424-135.52-254.848-209.088-421.44-180.896-67.584 11.488-131.424 39.104-184.672 79.904-8.544 6.528-21.024 5.216-27.84-2.976s-5.44-20.128 3.104-26.656c58.368-44.736 128.384-75.040 202.464-87.616zM569.312 905.12c-7.168 7.904-19.648 8.8-27.936 1.92l-58.56-48.544c-8.288-6.848-9.184-18.816-2.016-26.752l50.56-55.936c7.168-7.936 19.68-8.768 27.936-1.92 8.288 6.848 9.184 18.816 2.016 26.752l-23.040 25.504c20.448-0.512 40.896-2.336 61.184-5.792 217.696-36.96 367.776-237.28 334.528-446.496-1.824-11.392 7.36-21.824 19.616-21.824 9.6 0 18.048 6.72 19.552 16.096 39.264 247.136-154.624 482.816-423.392 495.68l17.568 14.56c8.288 6.848 9.184 18.816 2.016 26.752zM83.040 202.144c2.016-0.48 85.888-20.416 83.872-19.936 11.328-2.752 21.312 4.448 23.84 13.568 1.344 4.896-4.224-16.512 20.896 80.352 2.624 10.176-3.84 20.448-14.464 22.976s-21.376-3.648-24-13.824l-9.12-35.168c-42.336 76.96-57.056 164.672-40.96 251.52 25.152 135.808 120.416 247.104 254.752 297.696 10.176 3.84 15.2 14.848 11.2 24.576s-15.488 14.56-25.664 10.72c-147.296-55.456-251.68-177.44-279.296-326.368-17.792-96.16-1.28-193.312 46.176-278.24l-37.664 8.96c-10.656 2.496-21.376-3.648-24-13.824s3.84-20.448 14.432-22.976z" />
<glyph unicode="&#xe906;" glyph-name="calendar" d="M725.344 362.656c23.552 0 42.656 19.104 42.656 42.656s-19.104 42.656-42.656 42.656c-23.552 0-42.656-19.104-42.656-42.656s19.104-42.656 42.656-42.656zM725.344 192c23.552 0 42.656 19.104 42.656 42.656s-19.104 42.656-42.656 42.656c-23.552 0-42.656-19.104-42.656-42.656s19.104-42.656 42.656-42.656zM554.656 405.344c0-23.552-19.104-42.656-42.656-42.656s-42.656 19.104-42.656 42.656c0 23.552 19.104 42.656 42.656 42.656s42.656-19.104 42.656-42.656zM554.656 234.656c0-23.552-19.104-42.656-42.656-42.656s-42.656 19.104-42.656 42.656c0 23.552 19.104 42.656 42.656 42.656s42.656-19.104 42.656-42.656zM298.656 362.656c23.552 0 42.656 19.104 42.656 42.656s-19.104 42.656-42.656 42.656c-23.552 0-42.656-19.104-42.656-42.656s19.104-42.656 42.656-42.656zM298.656 192c23.552 0 42.656 19.104 42.656 42.656s-19.104 42.656-42.656 42.656c-23.552 0-42.656-19.104-42.656-42.656s19.104-42.656 42.656-42.656zM298.656 885.344c17.664 0 32-14.336 32-32v-32.544c28.256 0.544 59.36 0.544 93.6 0.544h175.488c34.24 0 65.344 0 93.6-0.544v32.544c0 17.664 14.336 32 32 32s32-14.336 32-32v-35.296c11.104-0.832 21.6-1.92 31.52-3.232 50.016-6.72 90.528-20.896 122.432-52.832s46.112-72.416 52.832-122.432c6.528-48.608 6.528-110.72 6.528-189.12v-90.144c0-78.4 0-140.512-6.528-189.12-6.72-50.016-20.896-90.528-52.832-122.432s-72.416-46.112-122.432-52.832c-48.608-6.528-110.72-6.528-189.12-6.528h-175.488c-78.4 0-140.512 0-189.12 6.528-50.016 6.72-90.528 20.896-122.432 52.832s-46.112 72.416-52.832 122.432c-6.528 48.608-6.528 110.72-6.528 189.12v90.144c0 78.4 0 140.512 6.528 189.12 6.72 50.016 20.896 90.528 52.832 122.432s72.416 46.112 122.432 52.832c9.952 1.344 20.448 2.4 31.52 3.232v35.296c0 17.664 14.336 32 32 32zM243.648 751.36c-42.912-5.76-67.648-16.608-85.728-34.656s-28.864-42.784-34.656-85.728c-0.992-7.264-1.792-14.912-2.464-23.008h782.368c-0.672 8.096-1.504 15.744-2.464 23.008-5.76 42.912-16.608 67.648-34.656 85.728s-42.784 28.864-85.728 34.656c-43.84 5.888-101.664 5.952-183.008 5.952h-170.656c-81.344 0-139.168-0.064-183.008-5.952zM117.344 448c0 36.448 0 68.16 0.544 96h788.224c0.544-27.84 0.544-59.552 0.544-96v-85.344c0-81.344-0.064-139.168-5.952-183.008-5.76-42.912-16.608-67.648-34.656-85.728s-42.784-28.896-85.728-34.656c-43.84-5.888-101.664-5.952-183.008-5.952h-170.656c-81.344 0-139.168 0.064-183.008 5.952-42.912 5.76-67.648 16.608-85.728 34.656s-28.864 42.784-34.656 85.728c-5.888 43.84-5.952 101.664-5.952 183.008v85.344z" />
<glyph unicode="&#xe907;" glyph-name="check" d="M512 960c-282.344 0-512-229.62-512-512 0-282.347 229.653-512 512-512 282.344 0 512 229.62 512 512 0 282.347-229.653 512-512 512zM512 888.552c243.726 0 440.552-196.825 440.552-440.552 0-243.765-196.822-440.552-440.552-440.552-243.726 0-440.552 196.825-440.552 440.552 0 243.765 196.822 440.552 440.552 440.552zM653.431 592.362l-212.88-212.95-69.983 70.053c-6.468 6.484-15.412 10.496-25.293 10.496s-18.825-4.012-25.292-10.495l-0.001-0.001c-6.484-6.468-10.496-15.412-10.496-25.293s4.012-18.825 10.495-25.292l95.312-95.242c6.465-6.462 15.395-10.459 25.258-10.459s18.793 3.997 25.258 10.459l238.208 238.138c6.484 6.468 10.496 15.412 10.496 25.293s-4.012 18.825-10.495 25.292l-0.001 0.001c-6.468 6.484-15.412 10.496-25.293 10.496s-18.825-4.012-25.292-10.495l-0.001-0.001z" />
<glyph unicode="&#xe908;" glyph-name="check-circle" d="M938.656 448c0 235.648-191.040 426.656-426.656 426.656s-426.656-191.040-426.656-426.656c0-235.648 191.040-426.656 426.656-426.656s426.656 191.040 426.656 426.656zM683.968 577.28c12.512-12.512 12.512-32.768 0-45.248l-213.344-213.344c-12.512-12.512-32.768-12.512-45.248 0l-85.344 85.344c-12.512 12.512-12.512 32.768 0 45.248s32.768 12.512 45.248 0l62.72-62.688 190.72 190.72c12.512 12.512 32.768 12.512 45.248 0z" />
<glyph unicode="&#xe909;" glyph-name="close" d="M427.968 577.28c-12.512 12.512-32.768 12.512-45.248 0s-12.512-32.768 0-45.248l84.032-84.032-84.032-84.032c-12.512-12.48-12.512-32.768 0-45.248s32.768-12.512 45.248 0l84.032 84.032 84.032-84.032c12.512-12.512 32.768-12.512 45.248 0s12.512 32.768 0 45.248l-84.032 84.032 84.032 84.032c12.512 12.48 12.512 32.768 0 45.248s-32.768 12.512-45.248 0l-84.032-84.032-84.032 84.032zM512 906.656c-253.312 0-458.656-205.344-458.656-458.656s205.344-458.656 458.656-458.656c253.312 0 458.656 205.344 458.656 458.656s-205.344 458.656-458.656 458.656zM117.344 448c0 217.952 176.704 394.656 394.656 394.656s394.656-176.704 394.656-394.656c0-217.952-176.704-394.656-394.656-394.656s-394.656 176.704-394.656 394.656z" />
<glyph unicode="&#xe90a;" glyph-name="close-circle" d="M938.656 448c0 235.648-191.040 426.656-426.656 426.656s-426.656-191.040-426.656-426.656c0-235.648 191.040-426.656 426.656-426.656s426.656 191.040 426.656 426.656zM382.72 577.28c12.512 12.512 32.768 12.512 45.248 0l84.032-84.032 84.032 84.032c12.512 12.512 32.768 12.512 45.248 0s12.512-32.768 0-45.248l-84.032-84.032 84.032-84.032c12.512-12.512 12.512-32.768 0-45.248s-32.768-12.512-45.248 0l-84.032 84.032-84.032-84.032c-12.48-12.512-32.768-12.512-45.248 0s-12.512 32.768 0 45.248l84.032 84.032-84.032 84.032c-12.512 12.48-12.512 32.768 0 45.248z" />
<glyph unicode="&#xe90b;" glyph-name="copy" d="M463.286 618.643c-67.045 0-121.929-54.884-121.929-121.929v-438.857c0-67.045 54.884-121.857 121.929-121.857h438.857c67.045 0 121.857 54.813 121.857 121.857v438.857c0 67.045-54.813 121.929-121.857 121.929zM463.286 569.929h438.857c40.695 0 73.143-32.52 73.143-73.214v-438.857c0-40.695-32.448-73.143-73.143-73.143h-438.857c-40.695 0-73.214 32.448-73.214 73.143v438.857c0 40.695 32.52 73.214 73.214 73.214zM121.928 960c-32.343 0-63.366-12.866-86.214-35.714-22.86-22.86-35.714-53.827-35.714-86.143v-438.857c0-32.343 12.866-63.366 35.714-86.214 22.86-22.86 53.898-35.714 86.214-35.714h48.786c13.447 0.013 24.344 10.91 24.357 24.356v0.001c-0.013 13.447-10.91 24.344-24.356 24.357h-48.787c-19.396 0-38.003 7.717-51.714 21.429-13.723 13.723-21.429 32.344-21.429 51.786v438.857c0 19.396 7.717 38.003 21.429 51.714 13.723 13.723 32.273 21.429 51.714 21.429h438.857c19.396 0 38.015-7.685 51.786-21.429 13.737-13.71 21.357-32.25 21.357-51.714v-48.786c0.013-13.455 10.924-24.357 24.38-24.357 0.017 0 0.034 0 0.051 0h-0.003c13.447 0.013 24.344 10.91 24.357 24.356v48.787c0 32.321-12.807 63.353-35.714 86.214-22.874 22.828-53.898 35.643-86.214 35.643z" />
<glyph unicode="&#xe90c;" glyph-name="detail" d="M384 448c0-23.552-19.104-42.656-42.656-42.656s-42.656 19.104-42.656 42.656c0 23.552 19.104 42.656 42.656 42.656s42.656-19.104 42.656-42.656zM554.656 448c0-23.552-19.104-42.656-42.656-42.656s-42.656 19.104-42.656 42.656c0 23.552 19.104 42.656 42.656 42.656s42.656-19.104 42.656-42.656zM682.656 405.344c23.552 0 42.656 19.104 42.656 42.656s-19.104 42.656-42.656 42.656c-23.552 0-42.656-19.104-42.656-42.656s19.104-42.656 42.656-42.656zM514.464 906.656h-4.896c-98.496 0-175.68 0-235.904-8.096-61.632-8.288-110.272-25.568-148.448-63.776s-55.488-86.816-63.776-148.448c-8.096-60.224-8.096-137.408-8.096-235.904v-4.896c0-98.496 0-175.68 8.096-235.904 8.288-61.632 25.568-110.272 63.776-148.448s86.816-55.456 148.448-63.776c60.224-8.096 137.408-8.096 235.904-8.096h4.896c98.496 0 175.68 0 235.904 8.096 61.632 8.288 110.272 25.568 148.448 63.776s55.456 86.816 63.776 148.448c8.096 60.224 8.096 137.408 8.096 235.904v4.896c0 98.496 0 175.68-8.096 235.904-8.288 61.632-25.568 110.272-63.776 148.448s-86.816 55.488-148.448 63.776c-60.224 8.096-137.408 8.096-235.904 8.096zM170.432 789.568c24.32 24.32 57.184 38.24 111.744 45.6 55.456 7.456 128.352 7.52 229.824 7.52s174.368-0.064 229.824-7.52c54.56-7.328 87.424-21.28 111.744-45.6s38.24-57.184 45.6-111.744c7.456-55.456 7.52-128.352 7.52-229.824s-0.064-174.368-7.52-229.824c-7.328-54.56-21.28-87.424-45.6-111.744s-57.184-38.24-111.744-45.6c-55.456-7.456-128.352-7.52-229.824-7.52s-174.368 0.064-229.824 7.52c-54.56 7.328-87.424 21.28-111.744 45.6s-38.24 57.184-45.6 111.744c-7.456 55.456-7.52 128.352-7.52 229.824s0.064 174.368 7.52 229.824c7.328 54.56 21.28 87.424 45.6 111.744z" />
<glyph unicode="&#xe90d;" d="M512 960c282.784 0 512-229.216 512-512s-229.216-512-512-512c-282.784 0-512 229.216-512 512s229.216 512 512 512z" />
<glyph unicode="&#xe90e;" d="M756.064 609.344c-38.72 58.56-97.216 101.28-164.832 120.288s-139.776 13.088-203.36-16.704c-63.584-29.792-114.336-81.44-142.976-145.568s-33.28-136.384-13.088-203.616 63.936-124.96 123.2-162.656c59.264-37.664 130.080-52.8 199.552-42.56s132.96 45.088 178.848 98.208c45.888 53.152 71.168 121.024 71.168 191.232 0.032 57.376-16.832 113.504-48.512 161.376zM387.712 572.512c37.6-4.256 75.36-6.592 113.184-6.944v-106.624h-129.024c0.672 38.368 5.984 76.48 15.84 113.568zM522.816 565.632c37.856 0.288 75.712 2.56 113.312 6.784 9.792-37.056 15.072-75.136 15.744-113.472h-129.056v106.688zM522.816 587.52v130.304c43.168-6.688 82.784-52.608 106.752-123.968-34.72-3.808-70.496-5.92-106.752-6.272v-0.064zM387.744 323.392c-6.272 23.072-10.688 46.592-13.216 70.336-1.536 14.176-2.4 28.704-2.72 43.264h129.088v-106.656c-15.296-0.16-30.624-0.512-45.696-1.248-22.784-1.152-45.376-3.136-67.456-5.696zM456.32 307.168c14.688 0.736 29.664 1.184 44.608 1.312v-130.464c-29.568 4.608-57.952 27.808-80.896 66.432-10.656 18.272-19.36 37.632-25.952 57.728 20.384 2.24 41.248 3.904 62.24 4.96zM522.816 437.024h129.12c-0.704-38.368-6.016-76.512-15.904-113.568-37.6 4.224-75.392 6.496-113.216 6.816v106.752zM673.792 458.944c-0.672 39.264-5.984 78.304-15.776 116.32 28.224 3.776 56.224 8.96 83.936 15.552 24.672-39.712 38.592-85.152 40.352-131.84h-108.512zM728.576 610.272c-24.192-5.568-49.952-10.144-76.864-13.728-15.648 48.384-38.4 86.784-65.28 111.712 56.8-16.256 106.752-50.656 142.144-97.952zM500.896 717.824v-130.24c-36.224 0.352-72 2.464-106.752 6.304 23.968 71.36 63.584 117.248 106.752 123.936zM437.408 708.384c-26.912-24.896-49.696-63.392-65.376-111.872-26.912 3.584-52.672 8.192-76.864 13.728 35.392 47.392 85.376 81.856 142.24 98.144zM281.792 590.784c27.68-6.624 55.648-11.84 83.84-15.616-9.792-37.984-15.104-76.992-15.776-116.224h-108.576c1.824 46.72 15.776 92.16 40.512 131.84zM349.888 437.024c0.32-15.36 1.248-30.688 2.88-45.6 2.496-23.84 6.816-47.456 12.896-70.624-8.128-1.12-16.16-2.304-24-3.616-20.768-3.392-40.832-7.424-59.84-12-24.704 39.68-38.688 85.12-40.512 131.84h108.576zM295.104 285.792c16.032 3.68 32.832 6.944 50.080 9.76 8.736 1.44 17.76 2.72 26.848 3.936 7.232-23.072 16.992-45.28 29.12-66.208 9.728-16.768 21.76-32.096 35.808-45.472-56.704 16.288-106.528 50.688-141.888 97.952zM522.816 178.112v130.24c36.256-0.352 72-2.464 106.752-6.272-23.968-71.36-63.584-117.28-106.752-123.968zM586.304 187.584c26.944 24.928 49.856 63.36 65.536 111.936 26.912-3.584 52.64-8.192 76.832-13.728-35.424-47.424-85.44-81.92-142.368-98.208zM741.728 305.12c-27.648 6.592-55.584 11.776-83.744 15.584 9.824 38.016 15.104 77.056 15.776 116.32h108.672c-1.888-46.752-15.904-92.224-40.704-131.904z" />
<glyph unicode="&#xe90f;" glyph-name="download" d="M535.616 255.744c-6.048-6.624-14.624-10.4-23.616-10.4s-17.568 3.776-23.616 10.4l-170.656 186.656c-11.936 13.056-11.008 33.28 2.016 45.216s33.28 11.008 45.216-2.016l115.040-125.824v472.256c0 17.664 14.336 32 32 32s32-14.336 32-32v-472.256l115.040 125.824c11.936 13.056 32.16 13.952 45.216 2.016s13.952-32.16 2.016-45.216l-170.656-186.656zM160 320c0 17.664-14.336 32-32 32s-32-14.336-32-32v-2.336c0-58.336 0-105.376 4.96-142.368 5.152-38.4 16.224-70.752 41.888-96.416s58.016-36.736 96.416-41.888c36.992-4.96 84.032-4.96 142.368-4.96h260.672c58.336 0 105.376 0 142.368 4.96 38.4 5.152 70.752 16.224 96.416 41.888s36.736 58.016 41.888 96.416c4.96 36.992 4.96 84.032 4.96 142.368v2.336c0 17.664-14.336 32-32 32s-32-14.336-32-32c0-61.248-0.064-103.968-4.384-136.192-4.224-31.296-11.904-47.872-23.712-59.68s-28.384-19.52-59.68-23.712c-32.224-4.32-74.944-4.384-136.192-4.384h-256c-61.248 0-103.968 0.064-136.192 4.384-31.296 4.224-47.872 11.904-59.68 23.712s-19.52 28.384-23.712 59.68c-4.32 32.224-4.416 74.944-4.416 136.192z" />
<glyph unicode="&#xe910;" glyph-name="drag" d="M384 640c35.36 0 64 28.64 64 64s-28.64 64-64 64c-35.36 0-64-28.64-64-64s28.64-64 64-64zM384 384c35.36 0 64 28.64 64 64s-28.64 64-64 64c-35.36 0-64-28.64-64-64s28.64-64 64-64zM384 128c35.36 0 64 28.64 64 64s-28.64 64-64 64c-35.36 0-64-28.64-64-64s28.64-64 64-64zM640 640c35.36 0 64 28.64 64 64s-28.64 64-64 64c-35.36 0-64-28.64-64-64s28.64-64 64-64zM640 384c35.36 0 64 28.64 64 64s-28.64 64-64 64c-35.36 0-64-28.64-64-64s28.64-64 64-64zM640 128c35.36 0 64 28.64 64 64s-28.64 64-64 64c-35.36 0-64-28.64-64-64s28.64-64 64-64z" />
<glyph unicode="&#xe911;" glyph-name="edit" d="M481.568 846.208h53.568c14.24 0 25.792-11.552 25.792-25.792s-11.552-25.792-25.792-25.792h-51.584c-81.792 0-140.576-0.064-185.28-6.080-43.968-5.92-70.496-17.152-90.080-36.768s-30.848-46.112-36.736-90.080c-6.016-44.704-6.080-103.488-6.080-185.28s0.064-140.576 6.080-185.28c5.92-43.968 17.152-70.496 36.736-90.080s46.112-30.848 90.080-36.736c44.704-6.016 103.488-6.080 185.28-6.080s140.576 0.064 185.28 6.080c43.968 5.92 70.496 17.152 90.080 36.736s30.848 46.112 36.736 90.080c6.016 44.704 6.080 103.488 6.080 185.28v51.584c0 14.24 11.552 25.792 25.792 25.792s25.792-11.552 25.792-25.792v-53.568c0-79.392 0-141.632-6.528-190.176-6.688-49.696-20.64-88.928-51.392-119.68s-69.984-44.736-119.68-51.392c-48.544-6.528-110.784-6.528-190.176-6.528h-3.936c-79.392 0-141.632 0-190.176 6.528-49.696 6.688-88.896 20.64-119.68 51.392s-44.736 69.984-51.392 119.68c-6.528 48.544-6.528 110.784-6.528 190.176v3.936c0 79.392 0 141.632 6.528 190.176 6.688 49.696 20.608 88.896 51.392 119.68s69.984 44.736 119.68 51.392c48.544 6.528 110.784 6.528 190.176 6.528zM647.648 810.912c47.040 47.040 123.328 47.040 170.4 0s47.040-123.328 0-170.4l-228.672-228.672c-12.768-12.768-20.768-20.768-29.696-27.744-10.528-8.192-21.888-15.232-33.92-20.96-10.208-4.864-20.96-8.448-38.080-14.144l-99.904-33.312c-18.432-6.144-38.784-1.344-52.544 12.416s-18.56 34.080-12.416 52.544l33.312 99.904c5.696 17.12 9.28 27.872 14.144 38.080 5.728 12.032 12.768 23.424 20.96 33.92 6.976 8.928 14.976 16.928 27.744 29.696l228.672 228.672zM781.536 774.432c-26.912 26.912-70.528 26.912-97.408 0l-12.96-12.96c0.768-3.296 1.888-7.232 3.392-11.616 4.928-14.208 14.272-32.928 31.872-50.528s36.32-26.944 50.528-31.872c4.384-1.504 8.32-2.624 11.616-3.392l12.96 12.96c26.912 26.912 26.912 70.528 0 97.408zM727.936 623.424c-17.76 7.648-38.432 19.872-57.984 39.424s-31.808 40.256-39.424 57.984l-173.888-173.888c-14.336-14.336-19.936-20-24.736-26.144-5.888-7.552-10.944-15.744-15.072-24.384-3.328-7.008-5.92-14.56-12.32-33.792l-14.848-44.576 35.488-35.488 44.576 14.848c19.232 6.4 26.784 8.992 33.792 12.32 8.672 4.128 16.832 9.184 24.384 15.072 6.112 4.768 11.808 10.4 26.144 24.736l173.888 173.888z" />
<glyph unicode="&#xe912;" glyph-name="img" d="M682.656 672c-29.472 0-53.344-23.872-53.344-53.344s23.872-53.344 53.344-53.344c29.472 0 53.344 23.872 53.344 53.344s-23.872 53.344-53.344 53.344zM565.344 618.656c0 64.8 52.544 117.344 117.344 117.344s117.344-52.544 117.344-117.344c0-64.8-52.544-117.344-117.344-117.344s-117.344 52.544-117.344 117.344zM509.536 906.656h4.896c98.496 0 175.68 0 235.904-8.096 61.632-8.288 110.272-25.568 148.448-63.776s55.456-86.816 63.776-148.448c8.096-60.224 8.096-137.408 8.096-235.904v-4.896c0-98.496 0-175.68-8.096-235.904-8.288-61.632-25.568-110.272-63.776-148.448s-86.816-55.456-148.448-63.776c-60.224-8.096-137.408-8.096-235.904-8.096h-4.896c-98.496 0-175.68 0-235.904 8.096-61.632 8.288-110.272 25.568-148.448 63.776s-55.488 86.816-63.776 148.448c-8.096 60.224-8.096 137.408-8.096 235.904v4.896c0 98.496 0 175.68 8.096 235.904 8.288 61.632 25.568 110.272 63.776 148.448s86.816 55.488 148.448 63.776c60.224 8.096 137.408 8.096 235.904 8.096zM170.432 106.432c24.32-24.32 57.184-38.24 111.744-45.6 55.456-7.456 128.352-7.52 229.824-7.52s174.368 0.064 229.824 7.52c54.56 7.328 87.424 21.28 111.744 45.6 10.4 10.4 18.88 22.336 25.792 36.896-1.664 1.024-3.232 2.208-4.736 3.552l-137.536 123.776c-33.248 29.952-82.816 32.928-119.424 7.2l-12.736-8.928c-46.656-32.8-110.112-27.296-150.432 13.024l-183.040 183.040c-24.608 24.608-64.096 25.92-90.304 3.008l-63.776-55.808c0.096-83.136 0.96-145.28 7.52-193.984 7.328-54.56 21.28-87.424 45.6-111.744zM282.176 835.136c-54.56-7.328-87.424-21.28-111.744-45.6s-38.24-57.184-45.6-111.744c-6.176-46.048-7.296-104.128-7.488-180.608l21.632 18.912c51.552 45.12 129.28 42.528 177.696-5.92l183.040-183.040c18.336-18.336 47.168-20.832 68.384-5.92l12.736 8.928c61.024 42.88 143.584 37.92 199.040-11.968l118.368-106.528c0.32 2.112 0.608 4.288 0.928 6.464 7.456 55.456 7.52 128.352 7.52 229.824s-0.064 174.368-7.52 229.824c-7.328 54.56-21.28 87.424-45.6 111.744s-57.184 38.24-111.744 45.6c-55.456 7.456-128.352 7.52-229.824 7.52s-174.368-0.064-229.824-7.52z" />
<glyph unicode="&#xe913;" d="M512 960c282.784 0 512-229.216 512-512s-229.216-512-512-512c-282.784 0-512 229.216-512 512s229.216 512 512 512z" />
<glyph unicode="&#xe914;" d="M752.64 539.424h-120.672c-22.464 43.392-67.808 73.12-119.968 73.12s-97.472-29.728-119.968-73.12h-120.672c-22.976 0-41.664-18.688-41.664-41.664v-40.384c0-22.976 18.688-41.664 41.664-41.664h120.672c22.464-43.392 67.808-73.12 119.968-73.12 27.936 0 53.888 8.512 75.456 23.104l21.984-21.984c-2.144-8.096-0.064-17.056 6.272-23.392l88.128-88.128c4.736-4.736 10.944-7.104 17.184-7.104s12.448 2.368 17.184 7.104l19.168 19.168c9.472 9.472 9.472 24.864 0 34.336l-88.128 88.128c-6.336 6.336-15.296 8.416-23.392 6.272l-21.984 21.984c2.944 4.352 5.664 8.896 8.096 13.6h120.672c22.976 0 41.664 18.688 41.664 41.664v40.384c0 22.976-18.688 41.664-41.664 41.664zM271.36 431.744c-14.144 0-25.664 11.52-25.664 25.664v40.384c0 14.144 11.52 25.664 25.664 25.664h113.664c-5.184-14.336-8.032-29.76-8.032-45.856s2.848-31.52 8.032-45.856h-113.664zM393.024 477.6c0 65.6 53.376 118.976 118.976 118.976s118.976-53.376 118.976-118.976c0-65.6-53.376-118.976-118.976-118.976s-118.976 53.376-118.976 118.976zM652.064 364.992c2.112 0 4.256-0.8 5.856-2.432l88.128-88.128c3.232-3.232 3.232-8.48 0-11.712l-19.168-19.168c-3.232-3.232-8.48-3.232-11.712 0l-88.128 88.128c-3.232 3.232-3.232 8.48 0 11.712l19.168 19.168c1.6 1.6 3.744 2.432 5.856 2.432zM632.192 371.168l-13.792-13.792-18.144 18.144c4.928 4.256 9.504 8.864 13.76 13.792l18.144-18.144zM778.272 457.408c0-14.144-11.52-25.664-25.664-25.664h-113.664c5.184 14.336 8.032 29.76 8.032 45.856s-2.848 31.52-8.032 45.856h113.664c14.144 0 25.664-11.52 25.664-25.664v-40.384zM512 582.368c-57.792 0-104.768-47.008-104.768-104.768s47.008-104.768 104.768-104.768c57.76 0 104.768 47.008 104.768 104.768s-47.008 104.768-104.768 104.768zM512 388.8c-48.96 0-88.768 39.84-88.768 88.768s39.84 88.768 88.768 88.768c48.96 0 88.768-39.84 88.768-88.768s-39.84-88.768-88.768-88.768z" />
<glyph unicode="&#xe915;" glyph-name="keyword-management" d="M512 917.552c-259.024 0-469.484-210.46-469.484-469.484s210.46-469.552 469.484-469.552c259.024 0 469.484 210.528 469.484 469.552s-210.46 469.484-469.484 469.484zM512 871.678c234.245 0 423.678-189.366 423.678-423.611s-189.433-423.678-423.678-423.678c-234.245 0-423.678 189.433-423.678 423.678s189.433 423.611 423.678 423.611zM512 960c-12.644-0.012-22.891-10.259-22.903-22.902v-127.615c0.012-12.644 10.259-22.891 22.902-22.903h0.001c12.644 0.012 22.891 10.259 22.903 22.902v127.615c-0.012 12.644-10.259 22.891-22.902 22.903h-0.001zM512 109.421c-12.644-0.012-22.891-10.259-22.903-22.902v-127.615c0.012-12.644 10.259-22.891 22.902-22.903h0.001c12.644 0.012 22.891 10.259 22.903 22.902v127.615c-0.012 12.644-10.259 22.891-22.902 22.903h-0.001zM873.483 470.904c-12.644-0.012-22.891-10.259-22.903-22.902v-0.001c0.012-12.644 10.259-22.891 22.902-22.903h127.615c12.644 0.012 22.891 10.259 22.903 22.902v0.001c-0.012 12.644-10.259 22.891-22.902 22.903h-0.001zM22.903 470.904c-12.644-0.012-22.891-10.259-22.903-22.902v-0.001c0.012-12.644 10.259-22.891 22.902-22.903h127.615c12.644 0.012 22.891 10.259 22.903 22.902v0.001c-0.012 12.644-10.259 22.891-22.902 22.903h-0.001zM597.031 577.226c-24.141 0-44.195-20.053-44.195-44.195s20.053-44.195 44.195-44.195c24.141 0 44.195 20.053 44.195 44.195s-20.053 44.195-44.195 44.195zM597.031 534.71c0.688 0 1.679-0.991 1.679-1.679s-0.991-1.679-1.679-1.679c-0.688 0-1.679 0.991-1.679 1.679s0.991 1.679 1.679 1.679zM575.807 662.324c-82.851 0-150.517-67.666-150.517-150.517 0-15.973 5.098-30.216 9.739-44.531l-130.636-130.636c-4.144-4.143-6.709-9.865-6.717-16.185v-63.808c0.014-12.652 10.273-22.903 22.927-22.903 0.015 0 0.030 0 0.045 0h63.738c0.012 0 0.026 0 0.041 0 6.332 0 12.064 2.567 16.213 6.717l130.636 130.636c14.315-4.641 28.54-9.806 44.531-9.806 82.851 0 150.517 67.666 150.517 150.517s-67.666 150.517-150.517 150.517zM575.807 616.45c58.073 0 104.643-46.571 104.643-104.643s-46.571-104.643-104.643-104.643c-15.183 0-29.607 3.459-42.919 9.47-2.758 1.268-5.984 2.008-9.383 2.008-6.328 0-12.058-2.564-16.207-6.71l-132.382-132.315h-31.366v31.366l132.383 132.315c4.143 4.148 6.705 9.876 6.705 16.202 0 3.453-0.763 6.727-2.13 9.663l0.059-0.141c-6.025 13.277-9.403 27.532-9.403 42.784 0 58.073 46.571 104.643 104.643 104.643z" />
<glyph unicode="&#xe916;" glyph-name="log-out" d="M144.41 960c-38.285 0-75.082-15.184-102.154-42.256s-42.256-63.869-42.256-102.154v-735.179c0-38.284 15.186-75.082 42.256-102.154 27.072-27.074 63.87-42.256 102.154-42.256h210.051c21.752 0 39.385 17.633 39.385 39.385v0c0 21.752-17.633 39.385-39.385 39.385v0h-210.051c-17.425 0-34.141 6.858-46.462 19.179-12.322 12.323-19.179 29.040-19.179 46.462v735.179c0 17.424 6.859 34.141 19.179 46.462s29.037 19.179 46.462 19.179h210.051c21.752 0 39.385 17.633 39.385 39.385v0c0 21.752-17.633 39.385-39.385 39.385v0zM722.051 749.948c-0.029 0-0.063 0-0.097 0-10.852 0-20.678-4.389-27.802-11.488l0.001 0.001c-7.156-7.132-11.584-16.998-11.584-27.897s4.428-20.765 11.583-27.896l195.283-195.283h-534.974c-21.752 0-39.385-17.633-39.385-39.385v0c0-21.752 17.633-39.385 39.385-39.385v0h534.974l-195.282-195.282c-7.156-7.132-11.584-16.998-11.584-27.897s4.428-20.765 11.583-27.896l0.001-0.001c7.132-7.156 16.998-11.584 27.897-11.584s20.765 4.428 27.896 11.583l262.565 262.565c5.924 6.52 9.698 15.088 10.15 24.526l0.003 0.090c0.394 0.817 0.844 1.901 1.246 3.008l0.087 0.274c-0.277 2.536-0.746 4.833-1.404 7.048l0.071-0.279c0.023 0.505 0.036 1.097 0.036 1.692s-0.013 1.187-0.039 1.776l0.003-0.084c-0.428 0.776-0.768 1.346-1.121 1.906l0.096-0.162c-1.845 6.24-4.993 11.609-9.147 16.020l0.019-0.020-262.564 262.564c-7.122 7.099-16.949 11.488-27.801 11.488-0.034 0-0.068 0-0.102 0h0.005z" />
<glyph unicode="&#xe917;" glyph-name="manual-check" d="M689.856 798.656c-29.44 0-58.24-8.736-82.72-25.088s-43.552-39.616-54.816-66.816-14.208-57.152-8.48-86.016c5.76-28.864 19.936-55.392 40.736-76.224s47.36-35.008 76.224-40.736c28.896-5.728 58.816-2.784 86.016 8.48s50.464 30.336 66.816 54.848c16.352 24.48 25.088 53.28 25.088 82.72-0.032 39.456-15.744 77.312-43.648 105.216s-65.76 43.616-105.216 43.648zM689.856 532.928c-23.104 0-45.696 6.848-64.928 19.712s-34.208 31.104-43.040 52.448c-8.832 21.344-11.168 44.864-6.656 67.52s15.648 43.488 31.968 59.84 37.152 27.488 59.84 32c22.656 4.512 46.176 2.208 67.52-6.656s39.616-23.808 52.448-43.040c12.832-19.232 19.712-41.824 19.712-64.928-0.032-30.976-12.352-60.704-34.272-82.624s-51.616-34.24-82.624-34.272zM969.44 578.976c8.128 0 15.904 3.232 21.632 8.992s8.96 13.536 8.992 21.632v80.416c0 8.128-3.232 15.904-8.992 21.632s-13.536 8.96-21.632 8.992h-51.584c-4.32 13.92-9.92 27.424-16.736 40.32l36.48 36.48c5.728 5.76 8.96 13.536 8.96 21.664s-3.232 15.904-8.96 21.664l-56.864 56.864c-5.76 5.728-13.536 8.96-21.664 8.96s-15.904-3.232-21.664-8.96l-36.48-36.48c-12.896 6.784-26.4 12.384-40.32 16.704v51.584c0 8.128-3.232 15.904-8.992 21.632s-13.536 8.96-21.632 8.992h-80.384c-8.128 0-15.904-3.232-21.632-8.992s-8.96-13.536-8.992-21.632v-51.584c-13.92-4.32-27.424-9.92-40.32-16.704l-36.48 36.48c-5.76 5.728-13.536 8.96-21.664 8.96s-15.904-3.232-21.664-8.96l-56.864-56.864c-5.728-5.76-8.96-13.536-8.96-21.664s3.232-15.904 8.96-21.664l36.48-36.48c-6.816-12.896-12.384-26.4-16.736-40.32h-51.584c-8.128 0-15.904-3.232-21.632-8.992s-8.96-13.504-8.992-21.632v-80.384c0-8.128 3.232-15.904 8.992-21.632s13.536-8.96 21.632-8.992h51.584c4.32-13.92 9.92-27.424 16.704-40.32l-36.48-36.48c-5.728-5.76-8.96-13.536-8.96-21.664s3.232-15.904 8.96-21.664l56.864-56.864c5.76-5.728 13.536-8.96 21.664-8.96s15.904 3.232 21.664 8.96l36.48 36.48c12.896-6.784 26.4-12.384 40.32-16.736v-51.552c0-8.128 3.232-15.904 8.992-21.632s13.536-8.96 21.632-8.992h80.416c8.128 0 15.904 3.232 21.632 8.992s8.96 13.536 8.992 21.632v51.584c13.92 4.32 27.424 9.92 40.32 16.736l36.48-36.48c5.76-5.728 13.536-8.96 21.664-8.96s15.904 3.232 21.664 8.96l56.864 56.864c5.728 5.76 8.96 13.536 8.96 21.664s-3.232 15.904-8.96 21.664l-36.48 36.48c6.784 12.896 12.384 26.4 16.736 40.32h51.584zM890.24 598.88c-4.896-19.264-12.544-37.728-22.72-54.816-1.824-3.072-2.56-6.624-2.144-10.176s2.048-6.816 4.576-9.344l44.064-44.064-54.912-54.912-44.064 44.064c-2.528 2.528-5.792 4.128-9.344 4.576s-7.104-0.32-10.176-2.144c-17.088-10.176-35.52-17.824-54.816-22.72-3.456-0.864-6.528-2.88-8.704-5.696s-3.36-6.272-3.36-9.824v-62.304h-77.664v62.304c0 3.552-1.184 7.008-3.36 9.824s-5.248 4.8-8.704 5.696c-19.264 4.896-37.728 12.544-54.816 22.72-3.040 1.824-6.624 2.56-10.176 2.144s-6.816-2.048-9.344-4.576l-44.064-44.064-54.912 54.912 44.064 44.064c2.528 2.528 4.128 5.792 4.576 9.344s-0.32 7.104-2.144 10.176c-10.176 17.056-17.824 35.52-22.72 54.816-0.864 3.456-2.88 6.528-5.696 8.704s-6.272 3.36-9.824 3.36h-62.304v77.632h62.304c3.552 0 7.008 1.184 9.824 3.36s4.8 5.248 5.696 8.704c4.864 19.264 12.544 37.728 22.72 54.816 1.824 3.072 2.56 6.624 2.144 10.176s-2.048 6.816-4.576 9.344l-44.064 44.064 54.912 54.912 44.064-44.064c2.528-2.528 5.792-4.128 9.344-4.576s7.104 0.32 10.176 2.144c17.088 10.176 35.52 17.856 54.816 22.72 3.456 0.864 6.496 2.88 8.704 5.696s3.36 6.272 3.36 9.824v62.304h77.632v-62.304c0-3.552 1.184-7.008 3.36-9.824s5.248-4.8 8.704-5.696c19.264-4.896 37.728-12.544 54.816-22.72 3.072-1.824 6.624-2.56 10.176-2.144s6.816 2.048 9.344 4.576l44.064 44.064 54.912-54.912-44.064-44.064c-2.528-2.528-4.128-5.792-4.576-9.344s0.32-7.104 2.144-10.176c10.176-17.056 17.856-35.52 22.72-54.816 0.864-3.456 2.88-6.528 5.696-8.704s6.272-3.36 9.824-3.36h62.304v-77.632h-62.304c-3.552 0-7.008-1.184-9.824-3.36s-4.8-5.248-5.696-8.704v0zM917.888 366.816c-0.128-0.064-0.256-0.128-0.384-0.224-42.368-24.672-82.976-56.832-120.736-95.616-19.52-18.208-36.192-24.576-57.472-22.048-75.968 9.376-162.816 32.992-258.144 70.144-113.696 49.92-217.664 35.36-309.024-43.328-2.688-2.144-5.568-4.032-8.544-5.728l-1.888 7.072c-0.544 2.016-1.472 3.936-2.752 5.6s-2.88 3.072-4.704 4.128c-1.824 1.056-3.84 1.728-5.92 2.016s-4.192 0.128-6.24-0.416l-130.208-34.88c-2.016-0.544-3.936-1.472-5.6-2.752s-3.072-2.88-4.128-4.704c-1.056-1.824-1.728-3.84-2.016-5.92s-0.128-4.192 0.416-6.24l76.672-286.080c0.544-2.016 1.472-3.936 2.752-5.6s2.88-3.072 4.704-4.128c1.824-1.056 3.84-1.728 5.92-2.016s4.192-0.128 6.24 0.416l130.208 34.88c2.016 0.544 3.936 1.472 5.6 2.752s3.072 2.88 4.128 4.704c1.056 1.824 1.728 3.84 2.016 5.92s0.128 4.192-0.416 6.24l-5.184 19.392c18.784 8.576 39.008 18.048 60.256 28.224 15.264 4.384 63.424 3.872 215.328-44.768l0.48-0.16c34.56-9.856 66.144-14.784 94.784-14.784 44.736 0 82.016 12.032 111.392 36.096 42.336 22.624 157.664 95.872 180.96 116.224 20.512 17.92 59.648 70.56 119.68 160.992 0.32 0.48 0.576 0.96 0.864 1.44 11.168 21.408 8.96 42.144-6.048 56.896-23.36 22.912-74.432 26.336-92.928 16.256v0zM103.968-28.384l-68.384 255.168 99.296 26.592 68.384-255.168-99.296-26.592zM988.864 309.216c-71.424-107.52-101.184-143.008-113.6-153.824-21.888-19.136-137.408-92.288-176.32-112.8-0.992-0.512-1.92-1.152-2.784-1.888-39.616-33.12-99.456-38.592-177.952-16.224-168.256 53.856-215.104 51.104-235.68 44.352-0.672-0.224-1.312-0.48-1.92-0.768-19.616-9.408-38.368-18.208-55.872-26.24l-52.576 196.256c7.36 3.84 14.336 8.352 20.864 13.472 82.464 70.976 172.608 83.456 275.584 38.144 0.192-0.096 0.416-0.192 0.64-0.256 96.256-37.568 184.448-61.664 262.176-71.712 16.928-12.416 19.936-19.968 19.584-21.696-0.032-0.096-3.328-10.944-48.384-21.216-15.456-3.52-64.8 5.696-104.448 13.088-33.824 6.336-65.792 12.288-88 13.472-0.352 0.032-0.736 0.032-1.12 0.032-24.576-0.416-43.136-4.768-56.704-13.376-3.584-2.272-6.112-5.856-7.040-10.016-0.448-2.048-0.512-4.16-0.16-6.24s1.12-4.064 2.24-5.824c1.12-1.76 2.592-3.296 4.288-4.512s3.648-2.080 5.696-2.528c4.128-0.928 8.48-0.192 12.064 2.080 8.16 5.152 21.824 8.064 39.552 8.416 20.128-1.152 52.224-7.136 83.264-12.96 46.048-8.608 78.944-14.4 100.96-14.4 5.536-0.096 11.072 0.416 16.48 1.536 28.608 6.528 67.232 18.4 72.672 46.272 2.208 11.36-1.76 21.728-7.904 30.464 15.232 4.736 29.696 13.76 44.448 27.552 0.192 0.16 0.352 0.352 0.544 0.512 35.68 36.704 73.952 67.072 113.76 90.304 8.384 3.584 43.904 1.056 55.712-11.488 1.92-2.048 5.92-6.24-0.032-18.048z" />
<glyph unicode="&#xe918;" glyph-name="refresh" d="M291.843 465.642h-35.721zM291.843 421.538l-26.742-23.681c6.444-7.278 15.573-11.612 25.284-12.007 9.711-0.4 19.164 3.177 26.18 9.907zM393.837 469.842c14.24 13.655 14.717 36.269 1.063 50.509-13.653 14.236-36.265 14.712-50.506 1.062zM252.975 519.309c-13.080 14.769-35.655 16.141-50.424 3.062s-16.139-35.654-3.060-50.424zM651.631 590.441c13.398-14.482 35.997-15.362 50.476-1.965 14.484 13.397 15.365 35.997 1.967 50.478zM514.081 721.861c-142.202 0-257.959-114.45-257.959-256.219h71.442c0 101.785 83.242 184.777 186.518 184.777zM256.122 465.642v-44.103h71.442v44.103zM316.564 395.757l77.273 74.085-49.443 51.571-77.273-74.090zM318.585 445.223l-65.61 74.085-53.484-47.361 65.61-74.090zM704.074 638.955c-47.137 50.952-114.859 82.906-189.992 82.906v-71.442c54.496 0 103.434-23.101 137.549-59.978zM731.984 474.467l26.705 23.723c-6.454 7.263-15.584 11.583-25.29 11.969s-19.151-3.201-26.157-9.93zM630.141 426.182c-14.231-13.664-14.684-36.278-1.019-50.505 13.664-14.231 36.278-14.688 50.505-1.024zM771.062 376.692c13.102-14.746 35.683-16.079 50.428-2.977 14.75 13.102 16.084 35.678 2.982 50.428zM371.349 304.893c-13.501 14.384-36.106 15.103-50.492 1.6-14.385-13.498-15.102-36.107-1.602-50.49zM508.894 174.144c142.541 0 258.81 114.321 258.81 256.219h-71.442c0-101.657-83.492-184.777-187.368-184.777zM767.705 430.364v44.103h-71.442v-44.103zM707.241 500.229l-77.1-74.047 49.485-51.529 77.1 74.047zM705.279 450.739l65.784-74.047 53.41 47.452-65.784 74.047zM319.255 256.003c47.262-50.357 114.801-81.858 189.639-81.858v71.442c-54.429 0-103.321 22.838-137.546 59.306zM512 960c-282.346 0-512-229.654-512-512s229.654-512 512-512c282.346 0 512 229.654 512 512s-229.654 512-512 512zM512 888.558c243.736 0 440.558-196.822 440.558-440.558s-196.822-440.558-440.558-440.558c-243.736 0-440.558 196.822-440.558 440.558s196.822 440.558 440.558 440.558z" />
<glyph unicode="&#xe919;" glyph-name="Search" d="M490.656 842.656c-206.176 0-373.344-167.136-373.344-373.344s167.136-373.344 373.344-373.344c206.176 0 373.344 167.136 373.344 373.344s-167.136 373.344-373.344 373.344zM53.344 469.344c0 241.536 195.808 437.344 437.344 437.344s437.344-195.808 437.344-437.344c0-109.248-40.064-209.152-106.272-285.792l139.584-139.584c12.512-12.512 12.512-32.768 0-45.248s-32.768-12.512-45.248 0l-139.584 139.584c-76.64-66.24-176.544-106.272-285.792-106.272-241.536 0-437.344 195.808-437.344 437.344z" />
<glyph unicode="&#xe91a;" d="M512 960c282.784 0 512-229.216 512-512s-229.216-512-512-512c-282.784 0-512 229.216-512 512s229.216 512 512 512z" />
<glyph unicode="&#xe91b;" d="M487.968 580.64c-7.616 0-15.072-0.544-22.080-1.6-76.064-10.72-133.44-76.864-133.44-153.92 0-85.728 69.76-155.52 155.52-155.52s155.52 69.76 155.52 155.52c0 74.112-52.672 138.208-125.28 152.48-9.856 1.952-20.032 3.008-30.24 3.008zM628.32 425.12c0-77.408-62.944-140.352-140.352-140.352s-140.352 62.944-140.352 140.352c0 69.504 51.776 129.28 120.48 138.912 6.304 0.96 12.96 1.408 19.872 1.408 9.216 0 18.432-0.896 27.296-2.656 65.504-12.864 113.024-70.848 113.024-137.696z" />
<glyph unicode="&#xe91c;" d="M487.968 527.424c4.16 0 7.52 3.36 7.52 7.552v8.768c0 4.16-3.36 7.52-7.52 7.52s-7.552-3.36-7.552-7.52v-8.768c0-4.16 3.36-7.552 7.552-7.552z" />
<glyph unicode="&#xe91d;" d="M487.968 320.8c-4.16 0-7.552-3.36-7.552-7.552v-8.768c0-4.16 3.36-7.52 7.552-7.52s7.52 3.36 7.52 7.52v8.768c0 4.16-3.36 7.552-7.52 7.552z" />
<glyph unicode="&#xe91e;" d="M408.704 514.048c-2.912 2.912-7.712 2.912-10.624 0s-2.912-7.712 0-10.624l6.208-6.208c1.504-1.504 3.36-2.208 5.312-2.208s3.904 0.704 5.312 2.208c2.912 2.912 2.912 7.712 0 10.624l-6.208 6.208z" />
<glyph unicode="&#xe91f;" d="M567.232 334.176c1.504-1.504 3.36-2.208 5.312-2.208s3.904 0.704 5.312 2.208c2.912 2.912 2.912 7.712 0 10.624l-6.208 6.208c-2.912 2.912-7.712 2.912-10.624 0s-2.912-7.712 0-10.624l6.208-6.208z" />
<glyph unicode="&#xe920;" d="M377.056 431.68h-8.672c-4.16 0-7.552-3.36-7.552-7.52s3.36-7.552 7.552-7.552h8.768c4.16 0 7.52 3.36 7.52 7.552s-3.456 7.52-7.616 7.52z" />
<glyph unicode="&#xe921;" d="M598.88 416.544h8.768c4.16 0 7.552 3.36 7.552 7.552s-3.36 7.552-7.552 7.552h-8.768c-4.16 0-7.52-3.36-7.52-7.552-0.096-4.16 3.36-7.552 7.52-7.552z" />
<glyph unicode="&#xe922;" d="M404.192 350.976l-6.208-6.208c-2.912-2.912-2.912-7.712 0-10.624 1.504-1.504 3.36-2.208 5.312-2.208s3.904 0.704 5.312 2.208l6.208 6.208c2.912 2.912 2.912 7.712 0 10.624-2.848 3.008-7.616 3.008-10.624 0z" />
<glyph unicode="&#xe923;" d="M566.336 495.008c1.952 0 3.904 0.704 5.312 2.208l6.208 6.208c2.912 2.912 2.912 7.712 0 10.624s-7.712 2.912-10.624 0l-6.208-6.208c-2.912-2.912-2.912-7.712 0-10.624 1.504-1.504 3.456-2.208 5.312-2.208z" />
<glyph unicode="&#xe924;" d="M495.52 454.912v46.176c0 4.16-3.36 7.552-7.52 7.552s-7.552-3.36-7.552-7.552v-46.176c-13.312-3.36-23.232-15.424-23.232-29.792s9.92-26.432 23.232-29.792v-10.56c0-4.16 3.36-7.52 7.552-7.52s7.52 3.36 7.52 7.52v10.56c13.376 3.36 23.328 15.424 23.328 29.792s-9.92 26.432-23.328 29.792zM487.968 409.44c-8.704 0-15.68 7.104-15.68 15.68s7.008 15.68 15.616 15.68h0.192c8.608 0 15.68-7.104 15.68-15.68-0.096-8.704-7.104-15.68-15.776-15.68z" />
<glyph unicode="&#xe925;" d="M688.768 730.272c-58.784 0-106.56-47.776-106.56-106.56s47.776-106.56 106.56-106.56c58.784 0 106.56 47.776 106.56 106.56s-47.776 106.56-106.56 106.56zM688.768 532.224c-50.432 0-91.488 41.056-91.488 91.488s41.056 91.392 91.488 91.392c50.432 0 91.488-41.056 91.488-91.488s-41.056-91.392-91.488-91.392z" />
<glyph unicode="&#xe926;" d="M721.504 656.864l-50.368-50.368-15.168 15.168c-2.912 2.912-7.712 2.912-10.624 0s-2.912-7.712 0-10.624l20.48-20.48c1.504-1.504 3.36-2.208 5.312-2.208s3.904 0.704 5.312 2.208l55.68 55.68c2.912 2.912 2.912 7.712 0 10.624-2.848 2.912-7.616 2.912-10.624 0z" />
<glyph unicode="&#xe927;" d="M730.272 476.352l-27.744 5.6c-2.304 0.448-4.064 2.208-4.8 4.512-1.152 4-5.408 6.304-9.408 5.152s-6.304-5.408-5.152-9.408c2.304-7.712 8.512-13.568 16.32-15.168l27.84-5.6c2.912-0.544 5.056-3.264 4.96-6.208l-1.76-70.208c-0.096-3.008-2.208-5.504-5.152-5.952l-28.448-4.448c-7.808-1.344-14.272-6.816-16.768-14.368-3.904-11.36-8.768-22.24-14.368-32.352-4-7.104-3.808-15.616 0.608-22.336l15.776-23.744c1.696-2.496 1.248-5.856-0.896-7.904l-54.528-52.128-27.136 19.872c-6.304 4.608-14.72 5.312-22.24 1.76-10.624-5.216-21.792-9.664-33.152-12.928-7.808-2.144-13.664-8.32-15.264-16.224l-5.76-28.448c-0.608-2.912-3.104-4.96-6.016-4.96h-70.048c-3.008 0-5.664 2.208-6.112 5.216l-4.448 29.6c-1.152 7.904-6.656 14.528-14.464 17.216-11.264 3.808-22.176 8.608-32.256 14.272-7.168 4.064-15.776 3.808-22.432-0.704l-23.84-15.968c-2.496-1.696-5.856-1.344-7.904 0.896l-48.416 50.72c-2.112 1.952-2.304 5.408-0.544 7.712l17.024 23.040c4.704 6.464 5.408 14.88 1.76 22.080-5.216 10.912-9.568 21.984-12.672 33.056-2.112 7.904-8.608 13.92-16.416 15.328l-27.84 5.504c-2.912 0.608-5.056 3.2-4.96 6.304l1.696 70.144c0.096 2.912 2.304 5.504 5.216 5.952l28.288 4.448c7.904 1.152 14.464 6.752 17.024 14.464 2.496 7.36 5.216 14.176 8.32 20.672 2.048 4.16 4.064 8.32 6.4 12.416 3.712 6.816 3.36 15.168-0.96 21.888l-15.68 23.68c-1.696 2.496-1.248 5.76 0.96 7.872l50.816 48.512c2.112 2.048 5.504 2.304 7.904 0.544l22.88-16.832c6.368-4.704 14.912-5.408 22.176-1.76 10.464 5.152 21.632 9.408 33.056 12.864 1.248 0.352 2.4 1.056 3.264 1.952 2.304 2.4 4.352 4.512 6.368 6.656l3.808 4c0.96 1.056 1.696 2.304 1.952 3.712l5.664 28.096c0.608 2.912 3.2 5.056 6.112 5.056h70.144c3.008 0 5.664-2.208 6.112-5.312l4.352-29.536c1.056-7.264 5.952-13.376 12.928-16.416 3.808-1.696 8.256 0.096 9.92 3.904s-0.096 8.256-3.904 9.92c-2.208 0.96-3.712 2.752-4 4.704l-4.352 29.44c-1.504 10.368-10.464 18.272-21.024 18.272h-70.4c-9.92 0-18.72-7.168-20.832-17.12l-5.216-26.080-2.4-2.496c-1.6-1.696-3.104-3.264-4.8-5.056-11.616-3.552-22.88-7.968-33.6-13.216-2.304-1.152-4.704-0.96-6.56 0.352l-22.88 16.832c-8.416 6.112-19.872 5.312-27.232-1.856l-50.816-48.512c-7.456-7.168-8.768-18.624-3.008-27.136l15.52-23.488c1.248-1.952 1.408-4.448 0.448-6.208-2.4-4.256-4.608-8.768-6.816-13.312-3.264-7.008-6.304-14.464-8.96-22.336-0.8-2.304-2.656-4-4.96-4.352l-28.288-4.448c-10.208-1.6-17.728-10.208-17.984-20.48l-1.696-70.144c-0.256-10.464 6.912-19.52 17.12-21.536l27.936-5.408c2.112-0.256 3.904-2.048 4.608-4.512 3.456-11.968 8.064-23.936 13.728-35.648 1.056-2.112 0.896-4.608-0.448-6.464l-17.024-23.040c-6.208-8.32-5.504-19.872 1.696-27.296l48.416-50.624c7.168-7.616 18.624-8.768 27.296-3.008l23.84 15.968c1.856 1.248 4.352 1.344 6.56 0.096 11.008-6.112 22.688-11.36 34.848-15.424 2.4-0.896 4.064-2.656 4.448-5.056l4.352-29.536c1.504-10.368 10.464-18.272 21.024-18.272h70.048c10.112 0 18.88 7.168 20.832 17.12l5.76 28.384c0.448 2.304 2.144 4 4.512 4.704 12.32 3.648 24.384 8.256 35.648 13.92 2.304 1.056 4.864 0.96 6.72-0.352l32.192-23.584c2.912-2.144 7.008-1.856 9.664 0.608l59.136 56.576c7.36 7.104 8.672 18.528 3.008 27.136l-15.776 23.84c-1.248 1.856-1.248 4.448-0.096 6.56 6.112 10.912 11.264 22.688 15.52 34.944 0.8 2.304 2.656 4 4.864 4.352l28.448 4.448c10.112 1.6 17.632 10.208 17.92 20.48l1.76 70.208c0.352 10.368-6.912 19.424-17.024 21.44z" />
<glyph unicode="&#xe928;" glyph-name="send" d="M774.144 805.088c-49.92-8.864-117.216-31.232-211.68-62.72l-213.824-71.264c-75.936-25.312-130.944-43.68-169.824-60.192-40.608-17.28-55.072-29.312-59.776-37.408-14.464-24.864-14.464-55.584 0-80.448 4.704-8.064 19.136-20.128 59.776-37.408 38.848-16.544 93.856-34.88 169.824-60.192 1.184-0.416 2.368-0.8 3.552-1.184 20.736-6.912 36.864-12.256 50.752-21.536 13.376-8.96 24.832-20.416 33.792-33.792 9.28-13.856 14.656-29.984 21.536-50.752 0.384-1.184 0.768-2.368 1.184-3.552 25.312-75.936 43.68-130.944 60.192-169.824 17.28-40.608 29.312-55.072 37.408-59.776 24.864-14.464 55.584-14.464 80.448 0 8.064 4.704 20.128 19.136 37.408 59.776 16.512 38.848 34.88 93.856 60.192 169.824l71.264 213.824c31.488 94.464 53.824 161.76 62.72 211.68 8.928 50.144 2.112 71.456-10.688 84.256s-34.112 19.616-84.256 10.688zM762.656 869.632c55.552 9.888 105.6 7.616 142.112-28.896s38.752-86.528 28.896-142.112c-9.824-55.232-33.792-127.104-64.096-218.080l-72.736-218.24c-24.672-74.048-43.872-131.584-61.536-173.152-17.056-40.096-36-74.048-64.768-90.784-45.248-26.304-101.12-26.304-146.336 0-28.768 16.736-47.712 50.688-64.768 90.784-17.696 41.568-36.864 99.104-61.536 173.152l-0.512 1.568c-8.64 25.952-11.296 32.992-15.008 38.56-4.192 6.24-9.536 11.616-15.776 15.776-5.568 3.744-12.608 6.368-38.56 15.008l-1.568 0.544c-74.048 24.672-131.584 43.872-173.152 61.536-40.096 17.056-74.048 36-90.784 64.768-26.304 45.248-26.304 101.12 0 146.336 16.736 28.768 50.688 47.712 90.784 64.768 41.568 17.696 99.104 36.864 173.152 61.536l218.24 72.736c90.976 30.336 162.848 54.272 218.080 64.096zM754.368 690.112c12.736-12.864 12.608-33.632-0.256-46.368l-174.816-172.896c-12.864-12.736-33.632-12.608-46.368 0.256s-12.608 33.632 0.256 46.368l174.848 172.896c12.864 12.736 33.632 12.608 46.368-0.256z" />
<glyph unicode="&#xe929;" glyph-name="setting" d="M251.392 753.76h-167.744c-14.784 0-26.784 11.552-26.784 25.792s11.968 25.792 26.784 25.792h167.744c14.784 0 26.784-11.552 26.784-25.792s-11.968-25.792-26.784-25.792zM347.232 652.928c-67.616 0-122.624 56.128-122.624 125.088s55.008 125.088 122.624 125.088 122.624-56.128 122.624-125.088c0-68.96-55.008-125.088-122.624-125.088zM347.232 848.48c-38.080 0-69.088-31.616-69.088-70.464s30.976-70.464 69.088-70.464c38.080 0 69.088 31.616 69.088 70.464s-30.976 70.464-69.088 70.464zM934.304 757.536h-490.592c-18.144 0-7.552 11.552-7.552 25.792s-10.592 25.792 7.552 25.792h490.592c18.144 0 32.832-11.552 32.832-25.792s-14.688-25.792-32.832-25.792zM706.72 322.88c-67.616 0-122.624 56.128-122.624 125.088s55.008 125.088 122.624 125.088 122.624-56.128 122.624-125.088c0-68.96-55.008-125.088-122.624-125.088zM706.72 518.432c-38.080 0-69.088-31.616-69.088-70.464s30.976-70.464 69.088-70.464c38.080 0 69.088 31.616 69.088 70.464s-30.976 70.464-69.088 70.464zM582.336 423.744h-494.656c-16.992 0-30.784 11.552-30.784 25.792s13.792 25.792 30.784 25.792h494.656c17.024 0 30.784-11.552 30.784-25.792s-13.792-25.792-30.784-25.792zM940.352 423.744h-137.792c-14.784 0-26.784 11.552-26.784 25.792s12 25.792 26.784 25.792h137.792c14.784 0 26.784-11.552 26.784-25.792s-12-25.792-26.784-25.792zM317.28-7.136c-67.616 0-122.624 56.128-122.624 125.12s55.008 125.088 122.624 125.088 122.624-56.128 122.624-125.088c0-68.992-55.008-125.12-122.624-125.12zM317.28 188.448c-38.080 0-69.088-31.616-69.088-70.464s30.976-70.496 69.088-70.496c38.080 0 69.088 31.616 69.088 70.496s-30.976 70.464-69.088 70.464zM936.32 93.696h-494.656c-16.992 0-30.784 11.552-30.784 25.792s13.792 25.792 30.784 25.792h494.656c17.024 0 30.784-11.552 30.784-25.792s-13.792-25.792-30.784-25.792zM221.44 93.696h-137.792c-14.784 0-26.784 11.552-26.784 25.792s11.968 25.792 26.784 25.792h137.792c14.784 0 26.784-11.552 26.784-25.792s-12-25.792-26.784-25.792z" />
<glyph unicode="&#xe92a;" d="M1024 448c0-282.784-229.216-512-512-512s-512 229.216-512 512c0 282.784 229.216 512 512 512s512-229.216 512-512z" />
<glyph unicode="&#xe92b;" d="M402.304 310.848c2.336 0 4.672 0.896 6.464 2.688l96.352 96.384c4.8-3.168 10.208-5.504 16.032-6.688v-19.2c0-5.056 4.096-9.152 9.152-9.152s9.152 4.096 9.152 9.152v19.2c20.832 4.256 36.576 22.72 36.576 44.8 0 9.28-2.816 17.952-7.616 25.184l14.080 14.080c3.584 3.584 3.584 9.344 0 12.928s-9.344 3.584-12.928 0l-14.080-14.080c-4.8 3.168-10.208 5.504-16.032 6.688v101.504c0 5.056-4.096 9.152-9.152 9.152s-9.152-4.096-9.152-9.152v-101.504c-20.832-4.256-36.576-22.72-36.576-44.8 0-9.312 2.816-17.952 7.616-25.184l-96.352-96.352c-3.584-3.584-3.584-9.344 0-12.928 1.792-1.792 4.128-2.688 6.464-2.688zM530.304 475.424c15.136 0 27.424-12.32 27.424-27.424s-12.32-27.424-27.424-27.424c-15.136 0-27.424 12.32-27.424 27.424s12.32 27.424 27.424 27.424z" />
<glyph unicode="&#xe92c;" d="M427.072 653.088c1.312 0 2.656 0.288 3.936 0.896 15.584 7.456 31.84 13.088 48.32 16.768 4.928 1.088 8.032 5.984 6.944 10.912s-5.984 7.968-10.912 6.944c-17.856-4-35.424-10.080-52.256-18.144-4.544-2.176-6.496-7.648-4.288-12.192 1.568-3.296 4.832-5.216 8.256-5.216z" />
<glyph unicode="&#xe92d;" d="M296.544 491.904c0.672-0.16 1.344-0.224 1.984-0.224 4.192 0 7.968 2.912 8.928 7.168 3.68 16.576 9.344 32.864 16.864 48.416 2.208 4.544 0.288 10.016-4.256 12.192s-10.016 0.288-12.192-4.256c-8.128-16.8-14.272-34.432-18.24-52.384-1.088-4.928 2.016-9.824 6.944-10.912z" />
<glyph unicode="&#xe92e;" d="M530.304 694.848c-5.056 0-9.152-4.096-9.152-9.152s4.096-9.152 9.152-9.152c126.048 0 228.576-102.528 228.576-228.576s-102.528-228.576-228.576-228.576c-121.568 0-221.216 95.392-228.16 215.232l20.544-20.544c1.792-1.792 4.128-2.688 6.464-2.688s4.672 0.896 6.464 2.688c3.584 3.584 3.584 9.344 0 12.928l-36.576 36.576c-3.584 3.584-9.344 3.584-12.928 0l-36.576-36.576c-3.584-3.584-3.584-9.344 0-12.928s9.344-3.584 12.928 0l21.28 21.28c6.592-130.272 114.656-234.24 246.528-234.24 136.128 0 246.848 110.752 246.848 246.848s-110.752 246.848-246.848 246.848z" />
<glyph unicode="&#xe92f;" d="M344.48 586.976c2.72 0 5.408 1.184 7.2 3.52 10.56 13.472 22.688 25.6 36.128 36.096 3.968 3.104 4.672 8.864 1.568 12.832s-8.864 4.672-12.832 1.568c-14.56-11.424-27.744-24.608-39.232-39.2-3.104-3.968-2.432-9.728 1.568-12.832 1.664-1.312 3.648-1.952 5.632-1.952z" />
<glyph unicode="&#xe930;" d="M530.272 621.728c5.056 0 9.152 4.096 9.152 9.152v18.272c0 5.056-4.096 9.152-9.152 9.152s-9.152-4.096-9.152-9.152v-18.272c0-5.056 4.096-9.152 9.152-9.152z" />
<glyph unicode="&#xe931;" d="M530.272 274.272c-5.056 0-9.152-4.096-9.152-9.152v-18.272c0-5.056 4.096-9.152 9.152-9.152s9.152 4.096 9.152 9.152v18.272c0 5.056-4.096 9.152-9.152 9.152z" />
<glyph unicode="&#xe932;" d="M613.792 285.056l9.152-15.84c1.696-2.912 4.768-4.576 7.936-4.576 1.568 0 3.136 0.384 4.576 1.216 4.384 2.528 5.888 8.128 3.36 12.48l-9.152 15.84c-2.528 4.384-8.128 5.856-12.48 3.36s-5.888-8.128-3.36-12.48z" />
<glyph unicode="&#xe933;" d="M684.064 348.64l15.84-9.152c1.44-0.832 3.008-1.216 4.576-1.216 3.168 0 6.24 1.632 7.936 4.576 2.528 4.384 1.024 9.952-3.36 12.48l-15.84 9.152c-4.384 2.528-9.952 1.024-12.48-3.36s-1.024-9.952 3.328-12.48z" />
<glyph unicode="&#xe934;" d="M704 448c0-5.056 4.096-9.152 9.152-9.152h18.272c5.056 0 9.152 4.096 9.152 9.152s-4.096 9.152-9.152 9.152h-18.272c-5.056 0-9.152-4.096-9.152-9.152z" />
<glyph unicode="&#xe935;" d="M367.36 364.48l-15.84-9.152c-4.384-2.528-5.888-8.128-3.36-12.48 1.696-2.912 4.768-4.576 7.936-4.576 1.568 0 3.136 0.384 4.576 1.216l15.84 9.152c4.384 2.528 5.888 8.128 3.36 12.48s-8.16 5.888-12.48 3.36z" />
<glyph unicode="&#xe936;" d="M699.904 556.48l-15.84-9.152c-4.384-2.528-5.888-8.128-3.36-12.48 1.696-2.912 4.768-4.576 7.936-4.576 1.568 0 3.136 0.384 4.544 1.216l15.84 9.152c4.384 2.528 5.888 8.128 3.36 12.48s-8.128 5.888-12.48 3.36z" />
<glyph unicode="&#xe937;" d="M430.944 294.208l-9.152-15.84c-2.528-4.384-1.024-9.952 3.36-12.48 1.44-0.832 3.008-1.216 4.576-1.216 3.168 0 6.24 1.632 7.936 4.576l9.152 15.84c2.528 4.384 1.024 9.952-3.36 12.48s-9.984 1.024-12.48-3.36z" />
<glyph unicode="&#xe938;" d="M617.152 598.432c1.44-0.832 3.008-1.216 4.544-1.216 3.168 0 6.24 1.632 7.936 4.576l9.152 15.84c2.528 4.384 1.024 9.952-3.36 12.48s-9.952 1.024-12.48-3.36l-9.152-15.84c-2.528-4.384-1.024-9.952 3.36-12.48z" />
<glyph unicode="&#xe939;" glyph-name="tooltips" d="M512 960c-282.976 0-512-228.992-512-512s228.992-512 512-512c282.976 0 512 228.992 512 512s-228.992 512-512 512zM564.576 244.768c0-16.16-23.584-32.352-52.576-32.352-30.336 0-51.904 16.16-51.904 32.352v256.768c0 18.88 21.568 31.68 51.904 31.68 28.992 0 52.576-12.8 52.576-31.68v-256.768zM512 595.2c-31.008 0-55.264 22.912-55.264 48.512s24.256 47.84 55.264 47.84c30.336 0 54.592-22.24 54.592-47.84s-24.256-48.512-54.592-48.512z" />
<glyph unicode="&#xe93a;" glyph-name="trash" d="M499.264 850.208c-43.776 0-81.12-27.968-94.976-67.104-6.176-17.472-25.344-26.624-42.816-20.448s-26.624 25.344-20.448 42.816c23.008 65.12 85.12 111.872 158.24 111.872s135.232-46.752 158.24-111.872c6.176-17.472-2.976-36.64-20.448-42.816s-36.64 2.976-42.816 20.448c-13.824 39.136-51.168 67.104-94.944 67.104zM85.344 704.768c0 18.528 15.040 33.568 33.568 33.568h760.704c18.528 0 33.568-15.040 33.568-33.568s-15.008-33.568-33.568-33.568h-760.704c-18.528 0-33.568 15.040-33.568 33.568zM226.976 595.136c-1.248 18.496-17.216 32.48-35.712 31.264s-32.48-17.216-31.264-35.712l20.736-311.072c3.84-57.408 6.912-103.776 14.176-140.16 7.52-37.824 20.352-69.408 46.816-94.176s58.848-35.456 97.088-40.448c36.8-4.8 83.264-4.8 140.768-4.8h39.328c57.536 0 104 0 140.768 4.8 38.24 4.992 70.624 15.68 97.088 40.448s39.296 56.352 46.816 94.176c7.264 36.384 10.336 82.752 14.176 140.16l20.736 311.072c1.248 18.496-12.768 34.496-31.264 35.712s-34.496-12.768-35.712-31.264l-20.576-308.736c-4.032-60.32-6.88-102.272-13.184-133.856-6.112-30.624-14.624-46.848-26.848-58.272s-28.992-18.848-59.936-22.912c-31.936-4.192-73.984-4.256-134.432-4.256h-34.592c-60.448 0-102.528 0.064-134.432 4.256-30.976 4.064-47.712 11.488-59.936 22.912s-20.768 27.648-26.848 58.272c-6.304 31.584-9.152 73.536-13.184 133.856l-20.576 308.736zM384.032 514.432c18.432 1.856 34.88-11.616 36.736-30.048l22.368-223.744c1.856-18.432-11.616-34.88-30.048-36.736s-34.88 11.616-36.736 30.048l-22.368 223.744c-1.856 18.432 11.616 34.88 30.048 36.736zM644.512 477.696c1.856 18.432-11.616 34.88-30.048 36.736s-34.88-11.616-36.736-30.048l-22.368-223.744c-1.856-18.432 11.616-34.88 30.048-36.736s34.88 11.616 36.736 30.048l22.368 223.744z" />
<glyph unicode="&#xe93b;" glyph-name="upload" d="M535.616 853.6c-6.048 6.624-14.624 10.4-23.616 10.4s-17.568-3.776-23.616-10.4l-170.656-186.656c-11.936-13.056-11.008-33.28 2.016-45.216s33.28-11.008 45.216 2.016l115.040 125.824v-472.256c0-17.664 14.336-32 32-32s32 14.336 32 32v472.256l115.040-125.824c11.936-13.056 32.16-13.952 45.216-2.016s13.952 32.16 2.016 45.216l-170.656 186.656zM160 320c0 17.664-14.336 32-32 32s-32-14.336-32-32v-2.336c0-58.336 0-105.376 4.96-142.368 5.152-38.4 16.224-70.752 41.888-96.416s58.016-36.736 96.416-41.888c36.992-4.96 84.032-4.96 142.368-4.96h260.672c58.336 0 105.376 0 142.368 4.96 38.4 5.152 70.752 16.224 96.416 41.888s36.736 58.016 41.888 96.416c4.96 36.992 4.96 84.032 4.96 142.368v2.336c0 17.664-14.336 32-32 32s-32-14.336-32-32c0-61.248-0.064-103.968-4.384-136.192-4.224-31.296-11.904-47.872-23.712-59.68s-28.384-19.52-59.68-23.712c-32.224-4.32-74.944-4.384-136.192-4.384h-256c-61.248 0-103.968 0.064-136.192 4.384-31.296 4.224-47.872 11.904-59.68 23.712s-19.52 28.384-23.712 59.68c-4.32 32.224-4.416 74.944-4.416 136.192z" />
<glyph unicode="&#xe93c;" glyph-name="upload-cloud" d="M800.128 75.456h-219.712v221.984h72.608c18.4 0 29.28 20.928 18.4 36l-141.248 195.424c-8.992 12.544-27.616 12.544-36.608 0l-141.248-195.424c-10.88-15.072-0.224-36 18.4-36h72.608v-221.984h-246.048c-109.856 6.048-197.312 108.8-197.312 220.128 0 76.8 41.632 143.744 103.36 179.936-5.664 15.264-8.576 31.584-8.576 48.768 0 78.464 63.392 141.856 141.856 141.856 16.96 0 33.28-2.944 48.544-8.576 45.408 96.256 143.328 163.008 257.152 163.008 147.296-0.224 268.672-112.992 282.464-256.736 113.184-19.456 199.2-124.288 199.2-242.912 0-126.784-98.752-236.64-223.872-245.44z" />
<glyph unicode="&#xe93d;" glyph-name="user-check" d="M512 906.656c-111.936 0-202.656-90.752-202.656-202.656s90.752-202.656 202.656-202.656c111.936 0 202.656 90.752 202.656 202.656s-90.72 202.656-202.656 202.656zM373.344 704c0 76.576 62.080 138.656 138.656 138.656s138.656-62.080 138.656-138.656-62.080-138.656-138.656-138.656c-76.576 0-138.656 62.080-138.656 138.656zM847.168 338.208c12.672-12.32 12.992-32.576 0.672-45.248l-78.208-80.608c-6.304-6.496-15.104-10.048-24.16-9.696s-17.568 4.512-23.36 11.488l-35.552 42.656c-11.328 13.568-9.472 33.76 4.096 45.056s33.76 9.472 45.088-4.096l12.8-15.328 53.44 55.072c12.32 12.672 32.576 12.992 45.248 0.672zM630.4 426.112c-37.248 7.296-77.056 11.232-118.4 11.232-98.72 0-189.664-22.432-257.056-60.352-66.4-37.344-116.288-93.952-116.288-163.648v-4.352c-0.064-49.568-0.096-111.776 54.464-156.224 26.848-21.856 64.416-37.408 115.2-47.712 50.912-10.304 117.248-15.712 203.68-15.712 122.368 0 205.216 10.848 261.088 31.648 50.304 18.72 80.128 46.176 96.032 80.704 60.672 35.008 101.536 100.576 101.536 175.68 0 111.936-90.72 202.656-202.656 202.656-53.12 0-101.472-20.448-137.6-53.888zM629.344 277.344c0 76.576 62.080 138.656 138.656 138.656s138.656-62.080 138.656-138.656-62.080-138.656-138.656-138.656c-76.576 0-138.656 62.080-138.656 138.656zM586.912 368.416c-13.792-27.392-21.568-58.336-21.568-91.104 0-101.952 75.264-186.304 173.28-200.544-45.696-14.336-116.608-23.456-226.592-23.456-84.224 0-145.888 5.312-190.976 14.464-45.248 9.152-71.68 21.728-87.488 34.592-29.152 23.744-30.88 55.136-30.88 110.944 0 36.32 26.528 75.744 83.648 107.872 56.16 31.584 135.872 52.128 225.664 52.128 25.856 0 50.944-1.696 74.912-4.896z" />
<glyph unicode="&#xe93e;" glyph-name="video" d="M509.536 906.656h4.896c98.496 0 175.68 0 235.904-8.096 61.632-8.288 110.272-25.568 148.448-63.776s55.456-86.816 63.776-148.448c8.096-60.224 8.096-137.408 8.096-235.904v-4.896c0-98.496 0-175.68-8.096-235.904-8.288-61.632-25.568-110.272-63.776-148.448s-86.816-55.456-148.448-63.776c-60.224-8.096-137.408-8.096-235.904-8.096h-4.896c-98.496 0-175.68 0-235.904 8.096-61.632 8.288-110.272 25.568-148.448 63.776s-55.488 86.816-63.776 148.448c-8.096 60.224-8.096 137.408-8.096 235.904v4.896c0 98.496 0 175.68 8.096 235.904 8.288 61.632 25.568 110.272 63.776 148.448s86.816 55.488 148.448 63.776c60.224 8.096 137.408 8.096 235.904 8.096zM282.176 835.136c-54.56-7.328-87.424-21.28-111.744-45.6s-38.24-57.184-45.6-111.744c-1.152-8.608-2.144-17.664-2.976-27.168h159.2l121.856 191.488c-48.096-0.736-87.552-2.56-120.768-7.008zM478.176 842.656c-0.8-2.24-1.856-4.416-3.168-6.496l-118.048-185.472h201.472l120.768 189.792c-45.376 2.176-100.032 2.208-167.2 2.208-11.648 0-22.912 0-33.824 0zM750.848 833.824l-116.576-183.168h267.808c-0.832 9.504-1.824 18.528-2.976 27.168-7.328 54.56-21.28 87.424-45.6 111.744-22.944 22.944-53.504 36.64-102.688 44.288zM905.536 586.656h-329.056c-0.352 0-0.672 0-1.024 0h-276.32c-0.352 0-0.672 0-1.024 0h-179.648c-1.12-39.328-1.152-84.992-1.152-138.656 0-101.472 0.064-174.368 7.52-229.824 7.328-54.56 21.28-87.424 45.6-111.744s57.184-38.24 111.744-45.6c55.456-7.456 128.352-7.52 229.824-7.52s174.368 0.064 229.824 7.52c54.56 7.328 87.424 21.28 111.744 45.6s38.24 57.184 45.6 111.744c7.456 55.456 7.52 128.352 7.52 229.824 0 53.664-0.032 99.328-1.152 138.656zM570.368 451.36l4.352-2.784c26.432-17.056 49.344-31.84 65.312-45.952 16.992-15.008 31.968-34.336 31.968-61.28s-15.008-46.272-31.968-61.28c-15.968-14.112-38.848-28.896-65.312-45.952l-4.352-2.784c-26.72-17.248-49.92-32.224-69.216-40.8-20.064-8.896-45.792-15.328-70.304 0.256-23.232 14.752-30.272 39.968-33.248 62.144-2.944 22.144-2.944 51.392-2.944 86.080v4.672c0 34.656 0 63.904 2.944 86.080s10.016 47.392 33.248 62.144c24.512 15.584 50.24 9.152 70.304 0.256 19.296-8.576 42.496-23.552 69.216-40.8zM463.264 437.248c-0.032 0.032 0.16 0.096 0.672 0.064-0.384-0.096-0.64-0.096-0.672-0.064zM464.928 437.184c1.728-0.288 4.896-1.184 10.24-3.552 14.144-6.272 33.12-18.4 62.72-37.504 29.152-18.816 47.84-30.976 59.712-41.472 10.912-9.664 10.432-13.056 10.4-13.312 0.032-0.288 0.544-3.712-10.4-13.344-11.872-10.496-30.56-22.656-59.712-41.472-29.6-19.104-48.576-31.232-62.72-37.504-5.344-2.368-8.544-3.232-10.24-3.552-0.96 1.824-2.592 6.24-3.872 15.904-2.336 17.408-2.4 42.336-2.4 79.968s0.064 62.56 2.4 79.968c1.28 9.664 2.944 14.080 3.872 15.904zM463.264 245.408c0.032 0.032 0.288 0.032 0.672-0.064-0.512-0.032-0.704 0.032-0.672 0.064zM465.504 244.544c0.16-0.128 0.224-0.224 0.192-0.224s-0.064 0.032-0.192 0.224zM465.504 438.112c0.128 0.16 0.192 0.224 0.192 0.224s-0.064-0.096-0.192-0.224z" />
</font>
</defs>
</svg>
