<svg xmlns="http://www.w3.org/2000/svg" width="500" height="300" viewBox="0 0 500 300"><rect width="100%" height="100%" fill="#DDDDDD"/><path fill="#999999" d="M138.085 118.375h8.3v50.61h-4.83q-1.12 0-1.88-.37-.75-.37-1.45-1.24l-26.42-33.74q.21 2.31.21 4.27v31.08h-8.3v-50.61h4.94q.59 0 1.03.05.44.05.77.21.33.16.65.46.31.29.7.78l26.53 33.88q-.11-1.22-.18-2.41-.07-1.19-.07-2.21v-30.76Zm34.09 14.14q3.99 0 7.26 1.29 3.28 1.3 5.6 3.68 2.33 2.38 3.59 5.81 1.26 3.43 1.26 7.66 0 4.27-1.26 7.7-1.26 3.43-3.59 5.85-2.32 2.41-5.6 3.71-3.27 1.3-7.26 1.3-4.02 0-7.31-1.3t-5.62-3.71q-2.33-2.42-3.61-5.85-1.27-3.43-1.27-7.7 0-4.23 1.27-7.66 1.28-3.43 3.61-5.81 2.33-2.38 5.62-3.68 3.29-1.29 7.31-1.29Zm0 30.34q4.48 0 6.63-3.01 2.16-3.01 2.16-8.82 0-5.81-2.16-8.85-2.15-3.05-6.63-3.05-4.55 0-6.74 3.07-2.18 3.06-2.18 8.83 0 5.78 2.18 8.81 2.19 3.02 6.74 3.02Zm52.15-44.48v50.61h-9.45v-50.61h9.45Zm18.59 50.61h-8.65v-35.91h5.29q1.68 0 2.2 1.57l.56 2.66q.95-1.05 1.98-1.92 1.03-.88 2.2-1.51 1.18-.63 2.52-.99 1.35-.37 2.96-.37 3.4 0 5.59 1.84 2.18 1.83 3.27 4.88.84-1.79 2.1-3.06 1.26-1.28 2.76-2.09 1.51-.8 3.21-1.19 1.69-.38 3.41-.38 2.97 0 5.28.91t3.89 2.66q1.57 1.75 2.4 4.27.82 2.52.82 5.77v22.86h-8.65v-22.86q0-3.43-1.5-5.16-1.51-1.73-4.41-1.73-1.33 0-2.47.45-1.14.46-1.99 1.32-.86.85-1.35 2.15-.49 1.29-.49 2.97v22.86h-8.68v-22.86q0-3.6-1.45-5.25-1.46-1.64-4.26-1.64-1.89 0-3.52.93-1.62.92-3.02 2.53v26.29Zm68.95-9.28v-6.05q-3.75.17-6.3.65-2.56.47-4.1 1.2-1.54.74-2.2 1.72-.67.98-.67 2.13 0 2.28 1.35 3.26t3.52.98q2.66 0 4.6-.96 1.94-.97 3.8-2.93Zm-18.27-18.86-1.54-2.77q6.19-5.67 14.91-5.67 3.15 0 5.63 1.04 2.49 1.03 4.2 2.87 1.72 1.83 2.61 4.39.89 2.55.89 5.6v22.68h-3.92q-1.22 0-1.89-.37-.66-.37-1.05-1.49l-.77-2.59q-1.36 1.23-2.66 2.16-1.29.92-2.69 1.55t-2.99.97q-1.6.33-3.52.33-2.28 0-4.2-.61-1.93-.62-3.33-1.84-1.4-1.23-2.17-3.05-.77-1.82-.77-4.23 0-1.37.46-2.71.45-1.35 1.49-2.58 1.03-1.22 2.67-2.31 1.65-1.08 4.05-1.89 2.39-.8 5.58-1.31 3.18-.51 7.28-.61v-2.1q0-3.61-1.54-5.34t-4.45-1.73q-2.1 0-3.48.49t-2.43 1.1q-1.05.61-1.91 1.1-.86.49-1.91.49-.91 0-1.54-.47t-1.01-1.1Zm47.95 9.31q1.61 0 2.8-.44 1.19-.44 1.98-1.21.78-.77 1.19-1.85.4-1.09.4-2.38 0-2.66-1.59-4.22-1.6-1.56-4.78-1.56-3.19 0-4.78 1.56-1.59 1.56-1.59 4.22 0 1.26.4 2.34.4 1.09 1.19 1.88.79.78 2 1.22 1.2.44 2.78.44Zm9.76 20.44q0-1.05-.63-1.72-.63-.66-1.71-1.03-1.09-.37-2.54-.54-1.45-.18-3.08-.26-1.63-.09-3.36-.16t-3.38-.28q-1.43.8-2.32 1.89-.9 1.09-.9 2.52 0 .95.48 1.77.47.82 1.5 1.42 1.03.59 2.68.92 1.64.34 4.02.34 2.42 0 4.17-.37t2.89-1.02q1.13-.64 1.66-1.54.52-.89.52-1.94Zm-1.71-36.3h10.32v3.22q0 1.54-1.85 1.89l-3.22.6q.73 1.85.73 4.06 0 2.66-1.06 4.81-1.07 2.15-2.96 3.66-1.89 1.5-4.46 2.33-2.58.82-5.55.82-1.05 0-2.03-.11-.98-.1-1.93-.28-1.68 1.02-1.68 2.28 0 1.08 1 1.59t2.64.72q1.65.21 3.75.26 2.1.05 4.3.23 2.21.17 4.31.61 2.1.44 3.74 1.38 1.65.95 2.65 2.58.99 1.62.99 4.18 0 2.38-1.17 4.62t-3.39 3.99q-2.23 1.75-5.46 2.82-3.24 1.07-7.37 1.07-4.06 0-7.07-.79-3.01-.79-5.01-2.1-1.99-1.31-2.97-3.03-.98-1.71-.98-3.57 0-2.52 1.52-4.22 1.52-1.7 4.18-2.71-1.43-.74-2.27-1.96-.84-1.23-.84-3.22 0-.81.3-1.66.29-.86.87-1.7.58-.84 1.45-1.59.88-.76 2.07-1.35-2.73-1.47-4.29-3.92t-1.56-5.74q0-2.66 1.07-4.81 1.07-2.16 2.98-3.68 1.9-1.52 4.51-2.33 2.61-.8 5.69-.8 2.31 0 4.34.47t3.71 1.38Zm22.61 12.6h16.31q0-1.68-.47-3.16-.48-1.49-1.42-2.61-.95-1.12-2.4-1.77-1.45-.65-3.38-.65-3.74 0-5.89 2.14-2.16 2.13-2.75 6.05Zm22.05 5.22h-22.23q.21 2.76.98 4.78.77 2.01 2.03 3.32 1.26 1.31 3 1.96 1.73.65 3.83.65t3.62-.49q1.52-.49 2.66-1.09 1.14-.59 2-1.08.85-.49 1.66-.49 1.08 0 1.61.8l2.48 3.15q-1.43 1.68-3.22 2.82-1.78 1.14-3.72 1.82-1.95.68-3.96.97-2.01.28-3.9.28-3.75 0-6.97-1.25-3.22-1.24-5.6-3.67-2.38-2.44-3.74-6.02-1.37-3.59-1.37-8.32 0-3.67 1.19-6.91t3.42-5.63q2.22-2.4 5.42-3.8 3.2-1.4 7.23-1.4 3.39 0 6.26 1.08 2.87 1.09 4.94 3.17 2.06 2.08 3.24 5.11 1.17 3.03 1.17 6.91 0 1.96-.42 2.65-.42.68-1.61.68Z"/></svg>